<svg xmlns="http://www.w3.org/2000/svg" xmlns:xlink="http://www.w3.org/1999/xlink" baseProfile="tiny">
    
    <!-- ::: TAB logo ::: -->
    <symbol id="tab" viewBox="-150 95 359 359">
			<path fill="#008A52" d="M173.2,326.2c0,11-8.9,22.2-19.8,25.2l-11.5,3.1L-132,427.8V244.1c0-21.9,17.8-44.4,39.7-50.3l11.2-3l254.3-68.2V326.2z"/>
			<path fill="#FFFFFF" d="M131.3,275.5c5.7-3.5,8.4-8.4,8.4-15.2v-10c0-15.5-9.7-23.1-29.6-23.1H69.9v101.2h43.4c19.1,0,30-9.1,30-25v-9.6C143.3,285.8,138.5,278.7,131.3,275.5 M93.4,245.6H108c7.8,0,8.7,3.7,8.7,6.4v10.2c0,4.1-3.2,6.4-8.7,6.4H93.4V245.6zM120.3,301.8c0,6-3.6,8.3-12.9,8.3H93.4v-23.6h17.6c6.1,0,9.2,2.7,9.2,8V301.8z"/>
			<path fill="#FFFFFF" d="M-28.6,250c2.9-0.2,5.2-2.6,5.2-5.6v-0.9v-16.3H-90c-6.3,0-11.3,5.1-11.3,11.3V250H-75v78.5h12.9h1.1c6.2,0,11.1-4.9,11.2-11.1v-0.3V250h20.3H-28.6z"/>
			<path fill="#FFFFFF" d="M36.5,242.2c-2.7-8.7-10.8-15-20.4-15h-1H0.1l-30.9,101.2h19.2h1h1.9c2.4,0,4.4-1.5,5.3-3.7l0.3-1l4-14.5h30.4l5.3,19.2h26.3l-26.4-86.1L36.5,242.2z M5.8,289.5l5.5-19.9l4.7-17l4.6,17l5.4,19.9H5.8z"/>
		</symbol>

    <!-- ::: Ladbrokes logo ::: -->
    <symbol id="ladbrokes_au" viewBox="-5 100 359 359">
			<path fill="#D32327" d="M460.4,373.1h-572.5c-7.5,0-13.7-6.2-13.8-13.8V202.6c0-7.5,6.2-13.7,13.8-13.8h572.5c7.5,0,13.7,6.2,13.8,13.8v156.8C474.1,366.9,467.9,373.1,460.4,373.1L460.4,373.1z"/>
      <path fill="#FFFFFF" d="M269,328c1.5-0.1,2.8-1.1,3.1-2.6l7.8-29.5l12.6,29.6c0.4,1.4,1.6,2.3,3,2.5h14.1c1.1,0,2-0.9,1.9-2c0-0.3-0.1-0.6-0.2-0.9c-2.7-5.8-16-33.6-16-33.6l32.4-30.5c1.2-1,1.4-2.7-0.8-2.7h-14.6c-1.2,0-2.4,0.5-3.1,1.5l-27,26.6l14.2-53.7h-16.4l-24.4,92.7c-0.3,1,0.2,2.1,1.2,2.5c0.2,0.1,0.4,0.1,0.6,0.1L269,328L269,328z M-40.1,314.5h-22.9c-5.9,0-8-1.5-7.5-6.4c0.1-1.4,0.3-2.8,0.6-4.1l18.7-71.3h-17.1l-19,72.2c-4.1,15.3,5.5,23.4,16.9,23.4c6.6,0,22.8,0,26.8-0.7c1.9-0.5,2.8-0.9,3.1-2.6v0.1c0,0,1.2-4.4,2.1-7.8c0.4-1,0-2.1-1-2.5C-39.6,314.6-39.9,314.5-40.1,314.5z M166.1,328.3c1.5-0.1,2.8-1.1,3.2-2.6l13.2-49.9c5.6-3,11.9-4.5,18.3-4.4c1.4-0.1,2.6-1.1,3-2.5c0.4-1.4,1.5-5.6,2.3-9l-0.2,0c0.4-0.9-0.1-1.9-1-2.3c-0.2-0.1-0.4-0.1-0.7-0.1c-7-0.3-13.9,1.8-19.5,5.9l0.6-2.5c0.4-1-0.1-2-1.1-2.4c-0.2-0.1-0.4-0.1-0.7-0.1l-0.1,0H173c-1.5,0.1-2.7,1.1-3,2.5l-17,64.3c-0.5,1.8,0,3,1.9,3H166.1z M435.1,260c-7.1-1.7-14.4-2.6-21.7-2.5c-11.8,0-26.3,3.8-27.8,20.3c-0.4,5.7,2.2,11.2,6.7,14.6l14.2,10.3c2.9,2.1,3.8,4.1,3.5,6.1c-0.3,5.7-4.9,6.8-11.1,6.8c-2.8,0-14-0.5-19.5-1.3c-1.4-0.1-2.7,0.7-3.3,2l-2,7.7c-0.3,1.1,0.3,2.2,1.3,2.5c0.1,0,0.2,0.1,0.3,0.1c7.3,1.6,14.7,2.4,22.2,2.4c14.6,0,27.9-6.5,29.3-22c0.7-6.3-2.4-12.4-7.9-15.5l-13.6-10.1c-1.9-0.9-3.1-2.8-3.3-4.9c0.5-5.3,6.2-5.8,9.8-5.8c6.5,0.1,13.1,0.6,19.5,1.5c2.1,0.3,2.9-1.5,3.2-2.5l1.8-7c0.4-1.2-0.2-2.5-1.4-2.9C435.2,260,435.1,259.9,435.1,260L435.1,260L435.1,260z M141.7,281.3c-0.1,2.5-0.6,4.9-1.4,7.3l-2.4,9.8c-2.4,9.2-7.3,17.7-18,17.7c-3.9,0-7.7-0.3-11.6-0.8l11.4-43.5c3.7-0.4,9.2-0.8,12.1-0.8C140,270.9,142.5,274.6,141.7,281.3z M129.9,232.8h-16.4l-23.9,90.5c-0.6,2.2,2.4,2.7,2.6,2.8c7.9,2.1,16,3.1,24.1,3.1c20.5,0,32.5-10.3,37.9-31l2.4-9.8c0.6-2.4,1.1-4.9,1.4-7.4c1.1-14-5.7-23.5-22.7-23.5c-3,0-7.5,0-12.1,0.7C123.2,258.3,129.9,232.8,129.9,232.8z M4.7,310.7c-4.8,3-10.3,4.8-15.9,5.2c-4.9,0-8.4-2.3-7.8-9.3c0-1.5,0.5-3.2,1-4.9l3.3-12.8c2.7-10.1,7.4-17.7,18-17.7c3.9,0,7.8,0.2,11.7,0.8L4.6,311C4.6,311,4.7,310.7,4.7,310.7z M14,328.2c1.4-0.1,2.7-1,3.1-2.4l16.1-61.6c0.5-2.1,0-2.8-1.8-3.3h0c-7.9-2.2-16.1-3.3-24.4-3.4c-20,0-32.8,11.7-38,31c-0.7,2.5-1.8,6.7-2.6,10.7c-0.6,2.5-1.1,5.1-1.5,7.6c-1.3,14.6,7,22.3,18.4,22.3c7.1-0.1,13.9-2.5,19.5-6.9c5.6-4.4-0.3,1.7-0.7,3.7c0,1.2,0,2.2,1.7,2.2C3.9,328.2,14,328.2,14,328.2z M243.9,282.9c-0.1,1.8-0.5,3.7-0.9,5.5l-2.8,9.8c-3.1,11.9-8.9,17-17.6,17c-7.3,0-10.5-4-9.8-11.3c0.3-2.2,0.7-4.4,1.4-6.5c0.5-2.4,2.4-9,2.4-9c3.4-12.3,10.2-16.8,17.8-16.8c7.6,0,10.3,4,9.8,11.4C244.2,282.8,243.9,282.9,243.9,282.9z M237.9,257.5c-19.5,0-32.3,10.5-37.8,30.8c0,0-1.6,5.6-2.3,8.6c-0.7,2.4-1.2,4.9-1.5,7.4c-1.1,13.1,5.7,24.9,22.6,24.9c19.5,0,32.1-10.3,37.7-30.9l2.6-9.8c0.7-2.2,1.1-4.5,1.4-6.8c1.2-13-5.7-24.4-22.7-24.4C237.9,257.4,237.9,257.5,237.9,257.5z M362.3,287.5H336c2.3-9,7.6-15.8,17.6-15.8c6.8,0,10.2,3.9,9.8,11.1l-0.1-0.2C363,284.3,362.7,285.9,362.3,287.5z M332.6,299.2H373c1.7,0,2.8-1,3.3-3c0,0,0.4-1.6,1.1-4.4c0.8-2.8,1.4-5.8,1.7-8.7c1.2-14.6-5.6-25.4-22-25.4v-0.3c-19.1,0-32,8.5-38.2,31.8c0,0-1,3.4-1.9,7.1c-0.9,3.7-1.3,7-1.4,8c-1.6,18.7,11.3,24.9,22.3,24.9c8.4,0.2,16.8-0.5,25.1-2.1c2.4-0.3,2.8-1.2,3.4-3.1c0,0,2.4-10.1,2.5-10.3c-8.5,1.1-17,1.7-25.6,1.7c-9.4,0-12.3-4.5-11.8-11.3C331.8,302.5,332.2,300.8,332.6,299.2z M67.5,315.1c-4,0.5-8,0.8-12,0.7c-8.1,0-10.7-3.1-10.1-9.8c0.2-2.6,0.7-5.2,1.3-7.7c0.5-2.2,2.5-9.8,2.5-9.8c3-12,7.4-17.7,18.1-17.7c2.9,0,8.2,0.4,11.6,0.8C78.8,271.8,67.5,315.1,67.5,315.1z M89,232.8l-6.7,25.5c-3.8-0.4-7.7-0.7-11.6-0.7c-19.9,0-32.3,8.5-38,31c0,0-1.9,7.1-2.4,9.8c-0.6,2.2-1,4.5-1.2,6.8c-1.3,13.7,5.4,24.4,22.6,24.4c8.7-0.1,17.3-1.1,25.8-3.1c2.9-0.7,3.7-1.4,4.2-3.3l23.8-90L89,232.8z"/>
		</symbol>

    <!-- ::: Neds logo ::: -->
    <symbol id="neds" viewBox="0 0 612 216">
      <path d="M0 0 C28.81208054 0 28.81208054 0 34.828125 5.74609375 C35.29734375 6.30425781 35.7665625 6.86242187 36.25 7.4375 C36.72953125 7.99308594 37.2090625 8.54867188 37.703125 9.12109375 C40.4368908 13.08176047 41.25026989 16.68905385 41.26069641 21.45341492 C41.26778122 22.53652954 41.27486603 23.61964417 41.28216553 24.73558044 C41.27968811 25.914272 41.27721069 27.09296356 41.2746582 28.30737305 C41.27976913 29.55690765 41.28488007 30.80644226 41.29014587 32.09384155 C41.30166152 35.51827849 41.30411469 38.94247321 41.30158257 42.3669126 C41.30050971 45.23851519 41.30540551 48.11009572 41.310188 50.98169357 C41.32128429 57.77370124 41.32172325 64.56565366 41.31567383 71.35766602 C41.30966576 78.32106009 41.32186351 85.28425047 41.3432439 92.24760979 C41.36099513 98.2539 41.36683926 104.26012625 41.36360615 110.26644164 C41.36181073 113.84069044 41.36424977 117.41479476 41.37832069 120.98901939 C41.46727501 145.73041571 41.55086557 169.29537605 24.3359375 188.89453125 C8.2058699 204.63378223 -18.21780176 209.37510314 -39.71313477 209.30273438 C-58.92776437 208.94906075 -76.92600193 203.49526937 -90.625 189.5625 C-108.14940409 169.12253133 -110.3311145 140.75621238 -109 115 C-107.09607001 91.96495233 -99.25444457 70.06142507 -81.25 54.6875 C-67.92356595 44.60990158 -53.32700407 41.74716545 -37 43 C-21.30200079 45.17933178 -10.80866194 52.73917257 -1 65 C-0.67 43.55 -0.34 22.1 0 0 Z M-57.9375 90.125 C-68.89716114 106.13679762 -69.38573454 124.9945524 -66.43359375 143.5625 C-64.37037815 152.80570587 -59.99867859 163.08920071 -51.7890625 168.44140625 C-42.9183148 173.47964645 -33.23329323 174.69116433 -23.2265625 172.3515625 C-20.95393564 171.41858937 -19.03812238 170.36961824 -17 169 C-16.29359375 168.525625 -15.5871875 168.05125 -14.859375 167.5625 C-6.04684321 160.77358662 -2.7263172 149.92465961 -1.23144531 139.22021484 C0.34875008 124.0616738 0.8007118 105.78520247 -8.4609375 92.7734375 C-14.82090396 85.44494823 -20.70014651 80.69918282 -30.4140625 79.62109375 C-41.45073194 79.09286212 -50.59806646 81.4597333 -57.9375 90.125 Z " fill="#FF7700" transform="translate(417,3)"/>
      <path d="M0 0 C6.53552701 6.03193332 10.62500074 13.20491498 14.59375 21.04296875 C15.00496094 21.84089844 15.41617188 22.63882813 15.83984375 23.4609375 C23.61644417 40.55735476 22.59375 59.74707397 22.59375 78.04296875 C-11.39625 78.04296875 -45.38625 78.04296875 -80.40625 78.04296875 C-77.46207447 95.83703164 -77.46207447 95.83703164 -66.6875 108.59765625 C-58.37058026 113.86693759 -48.83387572 113.80585811 -39.40625 112.04296875 C-32.66014665 109.87491071 -28.12322155 106.28380603 -23.5859375 100.91015625 C-18.21849146 96.31223653 -11.96114089 95.60068428 -5.1875 95.75 C-4.07248108 95.75636726 -4.07248108 95.75636726 -2.93493652 95.76286316 C-0.59165142 95.77947794 1.75073077 95.81709421 4.09375 95.85546875 C5.69529996 95.87053797 7.29686358 95.88422243 8.8984375 95.89648438 C12.79721583 95.92932449 16.69533056 95.98098312 20.59375 96.04296875 C17.23571534 113.72144482 7.27632462 127.7750206 -7.40625 138.04296875 C-25.67322017 149.17169277 -49.0924238 151.9748776 -69.96875 147.85546875 C-88.24235775 143.20597092 -103.08384671 133.22797448 -112.84765625 116.90234375 C-120.10651013 103.58534866 -123.9101007 88.20788005 -124.40625 73.04296875 C-124.44621094 71.92019531 -124.48617187 70.79742187 -124.52734375 69.640625 C-124.97215373 44.70510072 -120.30294524 19.61667714 -102.40625 1.04296875 C-75.28556076 -24.6057094 -28.19344456 -22.930058 0 0 Z M-67.40625 23.04296875 C-68.03917969 23.45546875 -68.67210937 23.86796875 -69.32421875 24.29296875 C-75.23012621 28.72554748 -79.15284207 35.76253545 -80.40625 43.04296875 C-80.40625 45.35296875 -80.40625 47.66296875 -80.40625 50.04296875 C-60.93625 50.04296875 -41.46625 50.04296875 -21.40625 50.04296875 C-22.31677346 40.02721067 -23.23562592 32.35750682 -30.37109375 25.0234375 C-40.40395137 17.10884157 -56.59360399 15.87931094 -67.40625 23.04296875 Z " fill="#FF7700" transform="translate(275.40625,62.95703125)"/>
      <path d="M0 0 C8.70551071 7.66084942 15.21572102 19.50131322 17 31 C17.06969021 33.66928976 17.02488405 36.32911164 17 39 C12.55260587 39.07449251 8.1055481 39.12876257 3.65771484 39.16479492 C2.14658273 39.17982543 0.63549382 39.20025564 -0.87548828 39.22631836 C-3.05512187 39.26295689 -5.23417575 39.27978338 -7.4140625 39.29296875 C-8.7232666 39.3086792 -10.0324707 39.32438965 -11.38134766 39.34057617 C-16.62810122 38.84676824 -19.82661926 37.22188297 -23.45703125 33.44140625 C-24.23433594 32.49136719 -25.01164063 31.54132813 -25.8125 30.5625 C-31.43800298 24.14908771 -36.65855549 21.36519137 -45 20 C-53.74469947 19.48134886 -62.73220589 19.44227509 -70 25 C-72.32106991 28.20528701 -72.55405751 31.12159743 -72 35 C-63.00557115 45.65086142 -45.59684561 47.39511675 -32.73461914 50.3918457 C6.18311846 59.56189925 6.18311846 59.56189925 16.75 74.46875 C23.90651179 86.44214473 24.26584262 99.8037082 21.28125 113.234375 C16.93219442 127.70623236 8.54936557 137.04745467 -4.5625 144.25 C-28.95429542 155.81561876 -62.81376342 155.52049301 -87.9375 146.8125 C-100.09117256 141.70243313 -109.3023446 133.6486373 -114.8984375 121.734375 C-118.49919675 112.79632013 -119 105.83900097 -119 96 C-105.14 96 -91.28 96 -77 96 C-76.34 98.97 -75.68 101.94 -75 105 C-71.68818265 111.6236347 -66.4696704 114.66551138 -59.75 117.25 C-48.96021086 119.40795783 -37.32167104 120.41562106 -27.4375 114.6875 C-24.38239486 112.50437279 -22.29264146 110.61939608 -21 107 C-20.8039301 103.40538522 -21.01005197 101.15815647 -23.40234375 98.359375 C-33.3134119 90.06173655 -48.57485949 88.5240013 -60.91064453 85.65087891 C-78.96983057 81.42592387 -99.97329956 75.59738642 -110.375 59 C-114.42047194 52.12947782 -115.36626366 45.50271081 -115.3125 37.6875 C-115.30758545 36.84590332 -115.3026709 36.00430664 -115.29760742 35.13720703 C-115.18198886 29.00764442 -114.56723215 23.63335962 -112 18 C-111.50693359 16.89011719 -111.50693359 16.89011719 -111.00390625 15.7578125 C-104.95147388 3.65294775 -95.29577817 -4.41865551 -82.765625 -9.24609375 C-79.53085205 -10.30242511 -76.30578536 -11.19479647 -73 -12 C-72.08089844 -12.22558594 -71.16179688 -12.45117188 -70.21484375 -12.68359375 C-47.35427837 -17.34573437 -19.01292408 -14.24335894 0 0 Z " fill="#FF7700" transform="translate(587,60)"/>
      <path d="M0 0 C12.62678778 11.27993041 16.68395197 27.6827942 18 44 C18.12656803 47.49330091 18.12702659 50.98152756 18.11352539 54.47680664 C18.11367142 55.48273865 18.11381744 56.48867065 18.1139679 57.52508545 C18.11327626 60.82013168 18.10551918 64.11512 18.09765625 67.41015625 C18.09578941 69.70657826 18.09436676 72.00300067 18.09336853 74.29942322 C18.08956432 80.32124953 18.07975206 86.34305144 18.06866455 92.36486816 C18.05840523 98.51863271 18.05386125 104.67240123 18.04882812 110.82617188 C18.0381278 122.88412526 18.02107672 134.9420606 18 147 C13.50022116 147.11690073 9.00083713 147.18748837 4.5 147.25 C3.2315625 147.28351563 1.963125 147.31703125 0.65625 147.3515625 C-7.79491725 147.43959549 -13.38894604 147.07107922 -19.784729 141.42427063 C-26.24119982 133.91113726 -24.81354342 123.58437423 -24.734375 114.29296875 C-24.74055828 112.36158638 -24.74966185 110.43021136 -24.76153564 108.49885559 C-24.78619916 103.4283606 -24.7770736 98.35852656 -24.75897217 93.2880249 C-24.735525 85.18535213 -24.76296198 77.0827218 -24.79169464 68.98009682 C-24.79676141 66.16850033 -24.78702303 63.35726817 -24.77484131 60.54570007 C-24.22934701 43.37229264 -24.22934701 43.37229264 -30.203125 27.75390625 C-36.10019986 21.9978484 -44.20424575 19.15652037 -52.33203125 18.828125 C-60.52607378 19.3559989 -67.36893555 22.36893555 -73.1875 28.1875 C-77.7704796 35.29902006 -78.44465769 42.55625798 -78.43237305 50.84399414 C-78.4425647 51.88894043 -78.45275635 52.93388672 -78.46325684 54.01049805 C-78.4932479 57.43543964 -78.50263168 60.86010091 -78.51171875 64.28515625 C-78.52857569 66.67126891 -78.5467273 69.05737275 -78.56611633 71.44346619 C-78.61351187 77.70198814 -78.64338894 83.9604743 -78.66955566 90.21911621 C-78.69941383 96.61424831 -78.74592613 103.00925723 -78.79101562 109.40429688 C-78.87693008 121.93614747 -78.94278774 134.46798547 -79 147 C-92.86 147 -106.72 147 -121 147 C-121.09073749 132.95139329 -121.16396689 118.90298447 -121.20724869 104.85414982 C-121.22803244 98.32916855 -121.2561804 91.80439994 -121.30175781 85.27954102 C-121.34554573 78.97065101 -121.36920619 72.66196425 -121.37950897 66.35293388 C-121.38684159 63.95824425 -121.40115858 61.56356445 -121.42292023 59.16896248 C-121.58933019 40.08067614 -121.33555508 19.76830182 -107.8984375 4.6328125 C-79.15923404 -22.27845576 -31.26925168 -22.4402865 0 0 Z " fill="#FF7700" transform="translate(124,62)"/>
    </symbol>

    <!-- ::: Unibet logo ::: -->
    <symbol id="unibet" viewBox="70 50 440 330">
      <path opacity="0.95" fill="#3CAA36" d="M376.9,261.2c-13.7,0-24.8,11.2-24.8,25c0,13.8,11.1,25,24.8,25c13.7,0,24.8-11.2,24.8-25
        C401.7,272.4,390.6,261.2,376.9,261.2z"/>
      <path fill="#3CAA36" d="M428.1,261.2c-13.7,0-24.8,11.2-24.8,25c0,13.8,11.1,25,24.8,25c13.7,0,24.8-11.2,24.8-25
        C452.8,272.4,441.7,261.2,428.1,261.2z"/>
      <path opacity="0.55" fill="#3CAA36" d="M172.2,261.2c-13.7,0-24.8,11.2-24.8,25c0,13.8,11.1,25,24.8,25c13.7,0,24.8-11.2,24.8-25
        C196.9,272.4,185.9,261.2,172.2,261.2z"/>
      <path opacity="0.65" fill="#3CAA36" d="M223.4,261.2c-13.7,0-24.8,11.2-24.8,25c0,13.8,11.1,25,24.8,25c13.7,0,24.8-11.2,24.8-25
        C248.1,272.4,237,261.2,223.4,261.2z"/>
      <path opacity="0.85" fill="#3CAA36" d="M325.7,261.2c-13.7,0-24.8,11.2-24.8,25c0,13.8,11.1,25,24.8,25c13.7,0,24.8-11.2,24.8-25
        C350.5,272.4,339.4,261.2,325.7,261.2z"/>
      <path opacity="0.75" fill="#3CAA36" d="M274.5,261.2c-13.7,0-24.8,11.2-24.8,25c0,13.8,11.1,25,24.8,25c13.7,0,24.8-11.2,24.8-25
        C299.2,272.4,288.1,261.2,274.5,261.2z"/>
      <path d="M452.2,213.8l-43,0l0-16.7l23,0c0,0,0,0,0,0c0.5,0,1-0.2,1.3-0.6c0.4-0.4,0.6-0.8,0.6-1.4l0-18c0-1.1-0.9-1.9-1.9-1.9l-23,0
        l0-14l40.4,0c0,0,0,0,0,0c1.1,0,1.9-0.9,1.9-1.9l0-17.9c0-0.5-0.2-1-0.6-1.4c-0.4-0.4-0.8-0.6-1.4-0.6l-64.3-0.1c0,0,0,0,0,0
        c-0.5,0-1,0.2-1.3,0.6c-0.4,0.4-0.6,0.8-0.6,1.3l-0.1,92.2c0,1.1,0.9,1.9,1.9,1.9l66.9,0.1c0,0,0,0,0,0c0.5,0,1-0.2,1.3-0.6
        c0.4-0.4,0.6-0.8,0.6-1.4l0-18C454.1,214.7,453.2,213.8,452.2,213.8z"/>
      <path d="M228.3,139.5l-21.6,0h0c-0.5,0-1,0.2-1.4,0.6c-0.4,0.4-0.6,0.8-0.6,1.4l0,48.1l-21-48.9c-0.3-0.7-1-1.2-1.8-1.2h-27.8
        c-1.1,0-1.9,0.9-1.9,1.9l0,92.3c0,1.1,0.9,1.9,1.9,1.9l21.9,0c0,0,0,0,0,0c0.5,0,1-0.2,1.4-0.6s0.6-0.8,0.6-1.4l0-54.5l24.2,55.3
        c0.3,0.7,1,1.1,1.7,1.1l24.3,0h0c0.5,0,1-0.2,1.4-0.6c0.4-0.4,0.6-0.8,0.6-1.4l0-92.3C230.2,140.4,229.3,139.5,228.3,139.5z"/>
      <path d="M133.5,139.5l-24.4,0c-0.2,0-0.5,0.1-0.7,0.3c-0.2,0.2-0.3,0.4-0.3,0.6v59.2c0,6.5-5.3,11.8-11.8,11.8
        c-6.5,0-11.8-5.3-11.8-11.8v-48.6l0,0l0-3.5l0-7.2c0-0.5-0.4-0.9-0.9-0.9l-24.4,0c-0.2,0-0.5,0.1-0.7,0.3c-0.2,0.2-0.3,0.4-0.3,0.6
        v59.2c0,21,17,38,38,38c21,0,38-17,38-38v-52.1l0,0l0-7.2C134.4,139.9,134,139.5,133.5,139.5z"/>
      <path d="M273.8,141.4c0-1.1-0.9-1.9-1.9-1.9l-22,0c0,0,0,0,0,0c-1.1,0-1.9,0.9-1.9,1.9l0,92.2c0,0.5,0.2,1,0.6,1.4
        c0.4,0.4,0.8,0.6,1.4,0.6l22,0h0c0.5,0,1-0.2,1.3-0.6c0.4-0.4,0.6-0.8,0.6-1.4L273.8,141.4z"/>
      <path d="M358.7,183.6c5-4.6,8.1-11.2,8.1-18.6c0-14.1-11.4-25.5-25.5-25.5c-0.2,0-0.4,0-0.6,0l-11.9,0v0l-35.2,0h0
        c-1.1,0-1.9,0.9-1.9,1.9l0,92.2c0,0.5,0.2,1,0.6,1.4c0.4,0.4,0.8,0.6,1.4,0.6l35.2,0v0h6.3c0,0,0,0,0,0h5.7c16,0,29.1-13,29.1-29.1
        C369.9,197.2,365.5,188.9,358.7,183.6z M316.9,158.7h19.2c3.8,0,6.9,3.1,6.9,6.9c0,3.8-3.1,6.9-6.9,6.9h-19.2V158.7z M335.9,212.6
        C335.8,212.6,335.8,212.6,335.9,212.6l-19,0v-20h19c5.5,0,10,4.5,10,10C345.9,208.1,341.4,212.6,335.9,212.6z"/>
      <path d="M541.3,140.2c-0.4-0.4-0.8-0.6-1.4-0.6l-72.1-0.1c0,0,0,0,0,0c-1.1,0-1.9,0.9-1.9,1.9l0,17.8c0,1.1,0.9,1.9,1.9,1.9l22.6,0
        l-0.1,72.5c0,0.5,0.2,1,0.6,1.4c0.4,0.4,0.8,0.6,1.3,0.6l22.8,0c0,0,0,0,0,0c1.1,0,1.9-0.9,1.9-1.9l0.1-72.5l22.9,0c0,0,0,0,0,0
        c1.1,0,1.9-0.9,1.9-1.9l0-17.8C541.9,141,541.7,140.6,541.3,140.2z"/>
    </symbol>

    <!-- ::: Sportsbet logo ::: -->
    <symbol id="sportsbet" viewBox="-20 0 1000 500">
      <path fill="#035DA7" opacity="1.000000" stroke="none" 
        d="
      M688.000000,422.000397 
        C463.366699,422.000397 239.233383,421.983002 15.100158,422.114807 
        C10.204306,422.117676 8.856884,421.148132 8.865148,416.004852 
        C9.042121,305.854858 9.029163,195.704498 8.893815,85.554390 
        C8.888253,81.027931 9.986415,79.892059 14.540964,79.893738 
        C329.827332,80.010239 645.113770,80.009064 960.400085,79.902634 
        C964.828247,79.901138 966.120972,80.841072 966.114807,85.495491 
        C965.967285,195.812210 965.970703,306.129181 966.106140,416.445953 
        C966.111694,420.973358 965.013367,422.115906 960.458557,422.108612 
        C869.805908,421.963531 779.152893,422.000397 688.000000,422.000397 
      z"/>
      <path fill="#FCFDFE" opacity="1.000000" stroke="none" 
        d="
      M549.929688,290.901733 
        C539.361572,301.797119 526.337952,303.880798 512.434387,302.504303 
        C505.150818,301.783234 498.134033,299.670105 491.201263,297.181549 
        C487.094147,295.707275 485.543976,293.821381 487.380188,289.705566 
        C487.848694,288.655365 488.293610,287.547119 487.599945,285.855927 
        C483.207214,289.048645 480.014618,293.260284 476.621429,297.130737 
        C473.884003,300.253174 470.712067,301.668335 466.854248,302.427429 
        C453.621063,305.031403 441.946747,300.701721 436.879852,291.031433 
        C433.194885,283.998566 434.649872,276.790131 436.565918,269.645599 
        C439.007843,260.540161 441.539795,251.458847 444.129578,242.014725 
        C440.267944,242.014725 436.807312,242.014725 432.093964,242.014725 
        C436.697296,236.126648 440.627441,230.928406 444.746460,225.884430 
        C448.130157,221.740906 451.485748,217.651230 452.030151,212.037704 
        C452.210419,210.178665 453.278381,209.230469 455.050903,208.549255 
        C465.883331,204.386047 476.666046,200.093399 487.905182,195.670822 
        C487.001617,202.184204 484.946320,207.951889 483.175262,213.755646 
        C481.892822,217.958191 482.860199,219.360748 487.273285,218.831177 
        C490.228760,218.476517 493.263000,218.826126 496.258698,218.742416 
        C498.304871,218.685226 499.451874,219.082382 498.763916,221.535049 
        C497.061584,227.603928 495.439911,233.696472 493.877686,239.802994 
        C493.391968,241.701553 492.164581,241.954498 490.521698,241.932297 
        C486.525055,241.878265 482.525879,241.975357 478.530334,241.889893 
        C476.607025,241.848770 475.561096,242.356110 475.032104,244.453766 
        C472.964539,252.652237 470.527283,260.758514 468.514374,268.969391 
        C466.734131,276.231323 469.717163,280.365265 477.157898,280.739899 
        C480.937103,280.930206 484.818176,280.406128 488.557892,279.700165 
        C492.230194,279.006958 490.548065,274.801331 492.570282,272.696503 
        C497.662323,275.236084 502.372864,278.741760 507.908722,280.648865 
        C511.756561,281.974396 515.660706,282.651398 519.690735,281.896484 
        C522.704346,281.332001 524.896118,279.725372 525.454529,276.484009 
        C525.973145,273.473724 524.639404,271.351501 522.138489,269.859619 
        C518.997620,267.985992 515.813538,266.184601 512.678406,264.301575 
        C496.477051,254.570969 495.586426,234.337540 511.138306,223.245163 
        C522.675171,215.016495 535.845825,215.286072 549.090149,217.388962 
        C554.014160,218.170761 558.715942,219.881714 563.373901,221.747726 
        C566.048157,222.819092 566.487610,224.221924 565.783997,226.685440 
        C564.099365,232.584396 562.514893,238.511948 560.801331,244.750732 
        C555.987427,241.575821 551.427063,238.283768 545.728638,237.366776 
        C542.405334,236.831955 539.132080,236.598618 535.847290,237.610703 
        C533.241760,238.413513 531.433899,239.941696 530.997253,242.713257 
        C530.564270,245.461380 531.627380,247.637390 533.978577,249.074127 
        C537.241577,251.068024 540.594482,252.914520 543.862366,254.900711 
        C558.385925,263.728180 560.758545,277.243835 549.929688,290.901733 
      z"/>
      <path fill="#F8D603" opacity="1.000000" stroke="none" 
        d="
      M553.325928,303.904297 
        C559.970642,278.172485 566.890747,252.888565 573.734985,227.584137 
        C577.893127,212.211029 581.934204,196.806290 586.069885,181.061523 
        C586.622803,178.684525 588.288879,179.565506 589.407654,179.562286 
        C598.898743,179.534973 608.390869,179.405975 618.238403,179.939087 
        C619.862122,181.865158 618.952209,183.465378 618.540161,185.004196 
        C616.180908,193.815536 613.833252,202.631302 611.324097,211.400482 
        C610.475952,214.364731 610.613220,215.731369 614.292542,214.965744 
        C619.202271,213.944122 624.227417,214.016205 629.225891,214.244553 
        C649.622253,215.176300 660.850891,227.079056 658.808655,247.286438 
        C656.718628,267.967102 647.856323,285.515442 630.587585,297.955505 
        C622.682434,303.650269 613.905151,306.833038 603.882019,305.191010 
        C600.960083,304.712341 599.198120,303.363922 598.171570,300.470703 
        C596.429077,295.559296 594.287415,290.789490 591.756287,284.596893 
        C589.882385,291.568115 588.403931,297.068298 586.911133,302.927582 
        C586.578247,305.061096 585.138550,304.455597 584.146606,304.451996 
        C573.954163,304.414825 563.760376,304.667328 553.325928,303.904297 
      z"/>
      <path fill="#FCFDFE" opacity="1.000000" stroke="none" 
        d="
      M215.571106,217.959335 
        C215.689758,223.624939 213.594101,228.496063 212.469727,233.706238 
        C213.977570,234.616714 214.736160,233.233871 215.589645,232.353073 
        C218.484070,229.366104 221.319275,226.321869 224.192856,223.314590 
        C234.641418,212.379822 252.259537,215.345367 258.873535,229.186707 
        C263.659637,239.202713 263.075867,249.485672 260.232513,259.861877 
        C255.178329,278.306122 245.356766,292.796173 226.776062,299.883698 
        C217.528931,303.410950 207.879120,303.823181 198.240234,302.265625 
        C194.686066,301.691315 193.719818,302.754913 192.950653,305.882111 
        C190.810928,314.581909 188.261841,323.180420 186.065140,331.867188 
        C185.506577,334.076050 184.542709,334.829956 182.318863,334.808167 
        C173.000885,334.716736 163.681503,334.769592 153.870468,334.769592 
        C156.741226,323.876129 159.479584,313.325653 162.304153,302.798309 
        C169.354324,276.521790 176.440063,250.254761 183.526398,223.987930 
        C183.957840,222.388687 184.519028,220.824432 185.055939,218.888519 
        C185.628723,216.921066 187.008621,217.547363 188.025513,217.547379 
        C197.093277,217.547562 206.161713,217.404587 215.571106,217.959335 
      z"/>
      <path fill="#FDFDFE" opacity="1.000000" stroke="none" 
        d="
      M323.656464,217.140533 
        C344.840759,221.725983 355.552460,236.423325 355.467590,254.290604 
        C355.353058,278.415314 339.886292,300.610596 310.386505,302.763947 
        C299.577667,303.552917 289.062988,302.105988 279.602936,296.423004 
        C265.987671,288.243805 260.157806,271.818726 264.421326,254.483841 
        C271.076904,227.423233 293.764587,212.987823 323.656464,217.140533 
      z"/>
      <path fill="#F8D702" opacity="1.000000" stroke="none" 
        d="
      M734.742554,265.168213 
        C720.281677,265.158447 706.289246,265.281158 692.302673,265.049225 
        C688.646973,264.988617 687.724792,266.201233 688.003113,269.579529 
        C688.646423,277.388672 695.301453,281.999329 704.343811,280.666138 
        C712.965027,279.395020 721.045105,276.329224 729.091675,273.158142 
        C730.934143,272.432068 732.776489,271.705658 735.649841,270.573029 
        C732.548401,279.842651 729.737915,288.376099 726.778503,296.857635 
        C726.516174,297.609558 725.364197,298.261475 724.489258,298.557739 
        C711.781494,302.860382 698.982910,306.117584 685.376404,303.040680 
        C671.963806,300.007538 661.805969,289.144836 660.021973,275.486145 
        C656.554871,248.941071 673.929565,222.603088 699.680054,215.369110 
        C715.423950,210.946243 730.882507,215.689194 738.436523,227.360336 
        C743.417908,235.056610 743.839844,243.608139 742.663086,252.351730 
        C742.265747,255.304459 741.423950,258.197296 740.786926,261.117889 
        C740.131348,264.123596 738.526367,265.820618 734.742554,265.168213 
      z"/>
      <path fill="#FCFDFE" opacity="1.000000" stroke="none" 
        d="
      M111.402725,252.309540 
        C107.167801,236.774033 116.232933,220.386032 136.504059,217.072586 
        C149.481216,214.951385 162.034714,216.635880 174.074875,222.000916 
        C175.639633,222.698151 177.121368,223.078293 176.396561,225.500793 
        C174.505630,231.820724 172.860199,238.214142 171.020981,244.928329 
        C166.148956,241.244553 161.404297,238.253586 155.691162,237.308563 
        C152.714890,236.816238 149.751007,236.647430 146.773544,237.412918 
        C143.989151,238.128799 141.876404,239.575241 141.187790,242.480621 
        C140.463654,245.535843 142.088165,247.671600 144.461182,249.176834 
        C147.822830,251.309174 151.377869,253.134903 154.760742,255.235809 
        C169.843796,264.602966 171.085526,282.017181 157.442825,293.600647 
        C147.802536,301.785858 136.281799,303.668701 124.170998,302.675903 
        C115.854439,301.994202 107.837837,299.738525 100.079102,296.604126 
        C97.383850,295.515289 96.233551,294.087585 97.213997,290.979309 
        C99.104454,284.986053 100.642372,278.881592 102.397385,272.568146 
        C107.840225,275.084106 112.507042,278.671997 118.024818,280.583496 
        C121.705139,281.858490 125.422005,282.546417 129.303955,282.004761 
        C132.530411,281.554565 135.026367,279.971161 135.875916,276.727264 
        C136.728378,273.472229 134.787262,271.333191 132.230072,269.763641 
        C128.691956,267.592010 125.043060,265.600769 121.505280,263.428619 
        C117.196815,260.783264 113.352219,257.662689 111.402725,252.309540 
      z"/>
      <path fill="#F8D702" opacity="1.000000" stroke="none" 
        d="
      M806.467041,218.624146 
        C807.299438,218.699295 807.724304,218.689117 808.460144,218.605896 
        C812.963440,218.558029 813.319397,219.123947 811.530029,223.776993 
        C809.811584,228.867706 808.078918,233.575851 807.180664,238.438126 
        C806.597351,241.595459 805.141907,242.184341 802.471497,241.933044 
        C801.151855,241.808884 799.810852,241.911591 798.479553,241.911591 
        C788.263123,241.911591 788.311462,241.922974 785.999573,251.733643 
        C784.631409,257.539429 782.979248,263.278748 781.639038,269.090454 
        C779.917175,276.557312 783.010498,280.733704 790.776306,280.765564 
        C795.709106,280.785828 800.645996,279.819366 806.149597,279.235016 
        C799.589600,286.270172 793.865051,293.761719 786.776978,299.597076 
        C780.745056,304.563019 772.549316,303.817200 765.198181,302.222168 
        C751.675842,299.288147 745.358276,288.890686 748.464355,274.721863 
        C750.627014,264.856537 753.347473,255.096832 756.253601,245.420517 
        C757.217590,242.210739 756.515198,241.697662 753.626648,241.879913 
        C751.177734,242.034409 748.711304,241.911789 745.147156,241.911789 
        C750.334045,235.301956 755.010864,229.424805 759.585876,223.469345 
        C761.287537,221.254166 763.811462,219.299805 763.935181,216.345718 
        C764.191956,210.215103 768.183716,208.303436 773.180786,206.528885 
        C782.386841,203.259689 791.387085,199.410904 801.352051,195.454697 
        C799.147644,203.273254 797.146362,210.371216 795.214233,217.853470 
        C798.860596,218.871429 802.470764,218.322632 806.467041,218.624146 
      z"/>
      <path fill="#4BC14A" opacity="1.000000" stroke="none" 
        d="
      M811.460327,224.264603 
        C810.264038,222.420776 814.385498,219.215073 809.165771,218.629044 
        C802.698059,202.230637 806.780396,185.968155 819.510193,175.752777 
        C831.781555,165.905228 849.702271,164.795837 862.449646,173.376678 
        C875.631714,182.250183 881.276733,195.039673 878.686157,210.446335 
        C876.200684,225.227661 867.086670,235.469772 852.420593,239.503250 
        C836.928772,243.763855 823.906067,239.018707 813.569885,226.793488 
        C812.926697,226.032715 812.342224,225.222336 811.460327,224.264603 
      z"/>
      <path fill="#FCFDFE" opacity="1.000000" stroke="none" 
        d="
      M349.381836,301.152283 
        C349.351074,292.870361 352.437988,285.463684 354.368073,277.816345 
        C358.992340,259.494110 364.236908,241.329132 368.979004,223.035324 
        C369.854645,219.657425 371.159851,218.543365 374.659210,218.670441 
        C382.641571,218.960297 390.643036,218.846191 398.633850,218.717651 
        C401.462036,218.672180 402.669159,219.217102 401.610107,222.346359 
        C400.442841,225.795273 399.660309,229.374390 398.677002,233.283569 
        C398.978668,233.867142 398.038757,234.725159 399.358643,234.653580 
        C403.395325,231.011734 407.469208,227.512924 410.881866,223.457642 
        C416.841461,216.375763 424.264954,216.424210 432.246918,218.189774 
        C433.995239,218.576492 435.332184,219.018585 434.631165,221.485718 
        C432.099243,230.396378 429.767914,239.364075 427.210510,248.868942 
        C420.033020,243.283600 412.495972,240.103256 403.655243,240.619064 
        C398.621338,240.912766 395.650696,242.576569 394.331329,248.085785 
        C390.198212,265.344482 385.452789,282.456512 380.936035,299.994324 
        C380.322845,302.261597 378.713104,301.435455 377.581177,301.439911 
        C368.321259,301.476501 359.060516,301.569702 349.381836,301.152283 
      z"/>
      <path fill="#004BBF" opacity="1.000000" stroke="none" 
        d="
      M724.987793,267.000000 
        C713.030029,267.000000 701.569580,267.000000 690.109131,267.000000 
        C690.109741,266.769562 690.110413,266.539093 690.111023,266.308655 
        C705.969788,266.308655 721.828552,266.308655 737.687317,266.308655 
        C737.700439,266.539093 737.713562,266.769562 737.726685,267.000000 
        C733.646179,267.000000 729.565613,267.000000 724.987793,267.000000 
      z"/>
      <path fill="#0049C3" opacity="1.000000" stroke="none" 
        d="
      M553.269775,303.859924 
        C564.049683,303.466614 575.016846,303.468140 586.440430,303.378174 
        C586.506348,303.785461 586.120239,304.716095 585.724731,304.720154 
        C574.966064,304.830322 564.190430,305.817566 553.269775,303.859924 
      z"/>
      <path fill="#0048C4" opacity="1.000000" stroke="none" 
        d="
      M618.803345,180.029068 
        C608.073547,180.385925 597.552185,180.493225 586.571289,180.653900 
        C586.516724,178.967667 587.898438,179.008057 589.240051,179.007431 
        C598.851624,179.002975 608.463135,179.003464 618.074707,179.010162 
        C618.568542,179.010513 619.032043,179.118820 618.803345,180.029068 
      z"/>
      <path fill="#004399" opacity="1.000000" stroke="none" 
        d="
      M379.099182,217.952026 
        C376.145447,217.951965 373.673950,217.951965 371.202454,217.951965 
        C371.203339,217.736801 371.204254,217.521652 371.205139,217.306488 
        C381.121338,217.306488 391.037567,217.306488 400.953766,217.306488 
        C400.957214,217.521683 400.960663,217.736877 400.964081,217.952072 
        C393.836548,217.952072 386.708984,217.952072 379.099182,217.952026 
      z"/>
      <path fill="#00459A" opacity="1.000000" stroke="none" 
        d="
      M349.241089,301.206848 
        C359.315094,300.792816 369.667053,300.700073 380.473267,300.485291 
        C380.611023,301.473419 379.819489,301.981842 378.722534,301.958069 
        C368.988953,301.747467 359.239746,302.589752 349.241089,301.206848 
      z"/>
      <path fill="#004198" opacity="1.000000" stroke="none" 
        d="
      M215.699234,217.951614 
        C205.946854,218.355637 195.980499,218.393860 185.553101,218.482605 
        C185.384811,217.682098 185.951508,217.064026 186.867538,217.082123 
        C196.406448,217.270462 205.966507,216.288528 215.699234,217.951614 
      z"/>
      <path fill="#4BC14A" opacity="1.000000" stroke="none" 
        d="
      M806.537476,218.529144 
        C803.159058,218.754059 799.443542,218.798630 795.505737,218.540482 
        C798.922424,218.274780 802.561462,218.311783 806.537476,218.529144 
      z"/>
      <path fill="#075EA6" opacity="1.000000" stroke="none" 
        d="
      M620.297119,239.621826 
        C624.459412,244.775024 624.091736,250.235153 623.096558,255.971878 
        C621.647522,264.324982 618.889587,272.048615 612.992371,278.257629 
        C609.596375,281.833191 605.329651,284.128479 600.131165,283.781647 
        C594.795959,283.425659 592.801025,280.954559 594.107056,275.813049 
        C597.081238,264.104248 600.264343,252.448456 603.378174,240.775299 
        C603.768005,239.313995 604.242310,238.045975 606.135498,237.724106 
        C610.946106,236.906219 615.694580,236.114059 620.297119,239.621826 
      z"/>
      <path fill="#075EA8" opacity="1.000000" stroke="none" 
        d="
      M212.354279,280.601440 
        C211.678619,280.837524 211.359131,280.937225 211.032166,280.993347 
        C200.801117,282.749603 199.560638,281.557556 202.077316,271.859131 
        C204.575119,262.233459 207.318680,252.671799 209.894958,243.066116 
        C211.080200,238.646927 214.906982,238.087311 218.389511,237.381989 
        C222.262161,236.597656 225.649872,237.908493 227.913666,241.318344 
        C228.633224,242.402237 229.162949,243.675842 229.504379,244.937134 
        C232.520767,256.079865 223.215912,275.689575 212.354279,280.601440 
      z"/>
      <path fill="#075EA8" opacity="1.000000" stroke="none" 
        d="
      M318.354492,238.364090 
        C322.490631,241.126572 323.876495,244.887039 323.917511,249.274780 
        C324.008270,258.977966 321.630524,268.009613 316.116852,276.044617 
        C313.077118,280.474304 308.797546,282.801697 303.265350,281.853607 
        C298.908844,281.106995 295.736603,278.499176 295.200592,274.134125 
        C293.842834,263.076141 295.820526,252.589371 302.386688,243.364883 
        C306.571838,237.485352 310.871399,236.239105 318.354492,238.364090 
      z"/>
      <path fill="#0B5EA5" opacity="1.000000" stroke="none" 
        d="
      M696.958862,243.369720 
        C698.908875,239.675797 701.786072,237.630020 705.350159,236.551834 
        C711.034241,234.832321 714.715210,237.191086 715.782837,243.582718 
        C709.464600,245.526581 703.220642,245.804565 696.958862,243.369720 
      z"/>
      <path fill="#316996" opacity="1.000000" stroke="none" 
        d="
      M696.635193,243.077484 
        C702.754578,245.446655 708.864197,243.493637 715.266907,243.983414 
        C715.880005,245.682404 714.678101,245.790848 713.466553,245.795456 
        C708.148071,245.815643 702.828430,245.750397 697.511292,245.836990 
        C694.869873,245.880005 695.161011,244.837891 696.635193,243.077484 
      z"/>
      <path fill="#F9FDF9" opacity="1.000000" stroke="none" 
        d="
      M866.947021,189.265030 
        C869.268188,191.355103 867.475647,192.416290 866.362488,193.534241 
        C856.741028,203.196701 847.049744,212.790421 837.507629,222.530273 
        C835.558472,224.519836 834.360168,224.695801 832.376831,222.581390 
        C828.055603,217.974640 823.610779,213.461746 818.941956,209.212097 
        C816.421570,206.917938 816.577209,205.349380 819.093323,203.440460 
        C820.146423,202.641525 821.180908,201.734360 821.965759,200.683685 
        C823.410645,198.749557 824.534851,199.295624 825.898499,200.764893 
        C827.819702,202.834854 830.063965,204.628510 831.824585,206.818100 
        C834.138855,209.695999 835.846680,209.079437 838.127197,206.715729 
        C844.476990,200.134033 851.171692,193.880569 857.416687,187.204254 
        C860.286926,184.135834 862.399902,183.246384 864.919983,187.251358 
        C865.349915,187.934647 866.094788,188.419769 866.947021,189.265030 
      z"/>
      <path fill="#035DA7"
        d="
      M399.385925,234.478882 
        C399.261505,235.069122 398.813080,235.697845 398.562775,235.626968 
        C397.702118,235.383240 398.171692,234.660706 398.447845,233.884583 
        C398.813507,233.845795 398.983124,234.021240 399.385925,234.478882 
      z"/>
    </symbol>
</svg>