<svg width="82" height="82" viewBox="0 0 82 82" fill="none" xmlns="http://www.w3.org/2000/svg">
<path d="M82 41C82 63.6437 63.6437 82 41 82C18.3563 82 0 63.6437 0 41C0 18.3563 18.3563 0 41 0C63.6437 0 82 18.3563 82 41Z" fill="#8B5CF6"/>
<path d="M44.3453 63H21.0492L30.4573 20.312H51.1933C58.6173 20.312 62.7773 25.112 62.7773 30.552C62.7773 36.312 58.2333 41.176 53.0493 41.688C57.0173 42.712 59.1933 46.552 59.1933 50.328C59.1933 56.28 55.0333 63 44.3453 63ZM53.0493 32.088C53.0493 29.848 51.1933 28.056 48.6333 28.056H37.8812L35.7692 37.464H47.2253C51.6412 37.464 53.0493 34.584 53.0493 32.088ZM50.1053 49.56C50.1053 47.064 48.3133 45.208 45.3693 45.208H34.0413L31.8652 55.256H43.5773C47.7373 55.256 50.1053 52.568 50.1053 49.56Z" fill="#F5F5F5"/>
</svg>
