<svg xmlns="http://www.w3.org/2000/svg" xmlns:xlink="http://www.w3.org/1999/xlink" baseProfile="tiny">
    <!-- ::: brisbane-broncos ::: -->
    <symbol id="Brisbane Broncos" viewBox="0 0 100 100">
        <circle cx="50" cy="50" r="49.2" fill="#761037"/>
        <path fill="none" d="M3.63 51.9c.039 1.553.152 3.088.339 4.6h93.262c.186-1.512.3-3.047.339-4.6H3.63zM6.468 66.9h88.265a46.711 46.711 0 001.491-4.9H4.977a46.474 46.474 0 001.491 4.9zM50.6 3.7C26.093 3.7 5.977 22.459 3.804 46.4h93.592C95.223 22.459 75.107 3.7 50.6 3.7z"/>
        <path fill="#FFF" d="M4.977 62h91.247a47.015 47.015 0 001.008-5.5H3.969c.23 1.869.565 3.705 1.008 5.5zM97.6 50.7c0-1.45-.076-2.883-.204-4.3H3.804a47.753 47.753 0 00-.204 4.3c0 .403.02.8.03 1.2h93.94c.01-.4.03-.797.03-1.2z"/>
        <path fill="#F9BF1A" d="M36.367 95.5h28.467c13.846-4.396 24.915-15.027 29.899-28.6H6.468c4.984 13.573 16.052 24.205 29.899 28.6z"/>
        <g>
            <path fill="#761037" d="M50 100C22.4 100 0 77.6 0 50S22.4 0 50 0s50 22.4 50 50-22.4 50-50 50zm0-95.2C25.1 4.8 4.8 25.1 4.8 50S25.1 95.2 50 95.2 95.2 74.9 95.2 50 74.9 4.8 50 4.8z"/>
        </g>
    </symbol>

    <!-- ::: canberra-raiders ::: -->
    <symbol id="Canberra Raiders" viewBox="0 0 100 100">
        <circle cx="50" cy="50" r="48.6" fill="#C3D942"/>
        <path fill="none" d="M50 1.4C27.954 1.4 9.348 16.083 3.4 36.2h93.2C90.652 16.083 72.046 1.4 50 1.4zM50 98.6c15.836 0 29.897-7.577 38.771-19.3H11.229C20.103 91.023 34.165 98.6 50 98.6z"/>
        <path fill="#046FB5" d="M1.4 50c0 2.621.214 5.191.613 7.7h95.973c.399-2.509.613-5.079.613-7.7 0-1.008-.041-2.007-.101-3H1.501c-.06.993-.101 1.992-.101 3z"/>
        <path fill="#F9BF1A" d="M5.055 68.5h89.891a48.239 48.239 0 003.023-10.7H2.031a48.187 48.187 0 003.024 10.7zM2.031 57.8h95.938l.018-.1H2.013l.018.1z"/>
        <path fill="#FFF" d="M98.499 47A48.418 48.418 0 0096.6 36.2H3.4A48.475 48.475 0 001.501 47h96.998zM5.055 68.5a48.53 48.53 0 006.175 10.8h77.541a48.53 48.53 0 006.175-10.8H5.055z"/>
        <g>
            <path fill="#05AC5B" d="M50 100C22.4 100 0 77.6 0 50S22.4 0 50 0s50 22.4 50 50-22.4 50-50 50zm0-95.1C25.1 4.9 4.9 25.1 4.9 50S25.1 95.1 50 95.1 95.1 74.8 95.1 50 74.9 4.9 50 4.9z"/>
        </g>
    </symbol>

    <!-- ::: canterbury-bulldog ::: -->
    <symbol id="Canterbury Bulldogs" viewBox="0 0 100 100">
        <circle cx="50" cy="50" r="50" fill="#03417A"/>
        <path fill="#FFF" d="M5 50c0 21.522 15.113 39.505 35.302 43.941L6.013 40.501A45.183 45.183 0 005 50zm55.092 43.85C80.083 89.267 95 71.381 95 50c0-2.851-.277-5.637-.784-8.34L74.34 71.716 60.092 93.85zm24.193-72.981a45.21 45.21 0 00-10.897-9.319L50.747 46.066 27.695 10.923a45.206 45.206 0 00-11.168 9.008l34.3 51.786 33.458-50.848z"/>
        <path fill="#0456A3" d="M50.827 71.716l-34.3-51.785a44.863 44.863 0 00-10.514 20.57L40.302 93.94A45.108 45.108 0 0050 95c3.471 0 6.846-.406 10.092-1.15l14.247-22.134 19.876-30.057a44.826 44.826 0 00-9.931-20.791L50.827 71.716zm22.56-60.167A44.788 44.788 0 0050 5a44.777 44.777 0 00-22.305 5.923l23.052 35.143 22.64-34.517z"/>
    </symbol>

    <!-- ::: cronulla-sharks ::: -->
    <symbol id="Cronulla Sutherland Sharks" viewBox="0 0 100.001 100.001">
        <circle cx="50.1" cy="50.1" r="48.4" fill="#0BA9D7"/>
        <path fill="none" d="M49.915 1.701C27.98 1.785 9.52 16.45 3.654 36.478l92.785-.354C90.42 16.141 71.849 1.617 49.915 1.701zM4.172 65.377c6.419 19.309 24.656 33.206 46.112 33.124 21.456-.082 39.586-14.118 45.858-33.476l-91.97.352z"/>
        <path fill="#FFF" d="M98.499 49.916a48.373 48.373 0 00-2.06-13.792l-92.785.354a48.387 48.387 0 00-1.955 13.808 48.329 48.329 0 002.473 15.091l91.969-.351a48.337 48.337 0 002.358-15.11z"/>
        <g>
            <path d="M95.435 33.134l-90.805.347a48.412 48.412 0 00-1.003 3.104l92.845-.354a47.052 47.052 0 00-1.037-3.097zM92.922 27.544l-85.811.327a48.282 48.282 0 00-1.479 3.106l88.783-.339a48.13 48.13 0 00-1.493-3.094zM5.283 68.379l89.77-.343a48.33 48.33 0 001.123-3.104l-92.032.351a47.65 47.65 0 001.139 3.096zM8.116 74.168l84.154-.321a48.521 48.521 0 001.613-3.106l-87.414.333a47.377 47.377 0 001.647 3.094z"/>
        </g>
        <g>
            <path d="M50.2 100C22.6 100.1.1 77.8 0 50.2S22.2.1 49.8 0 99.9 22.2 100 49.8c.1 27.6-22.2 50.1-49.8 50.2zm-.4-95.2c-24.9.1-45.1 20.4-45 45.4.1 24.9 20.4 45.1 45.4 45 24.9-.1 45.1-20.4 45-45.4-.1-24.9-20.5-45.1-45.4-45z"/>
        </g>
    </symbol>

    <!-- ::: dolphins ::: -->
    <symbol id="Dolphins" viewBox="0 0 100.061 100.033">
        <circle cx="50.031" cy="50.017" r="50" fill="#FE5442"/>
        <path fill="#F9C495" d="M49.812 67.708l-.02.114L5.96 60.093c4.626 20.072 22.594 35.043 44.071 35.043 21.531 0 39.536-15.047 44.106-35.195L49.82 67.755l-.008-.047zM49.817 51.098l-.02.113L5.268 43.36a45.608 45.608 0 00-.477 6.537c0 .366.019.728.028 1.092l44.798 7.899 45.628-8.046c.006-.316.024-.628.024-.946 0-2.269-.172-4.498-.494-6.678l-44.95 7.926-.008-.046z"/>
        <path fill="#FFF" d="M49.852 42.32l-.124-.022-.105.019L7.36 34.865a44.947 44.947 0 00-2.092 8.495l44.529 7.852.02-.113.008.047 44.95-7.926a44.928 44.928 0 00-2.106-8.449L49.852 42.32z"/>
        <path fill="#FFF" d="M4.819 50.99a45.311 45.311 0 001.14 9.103l43.832 7.729.02-.114.008.047 44.316-7.814a45.27 45.27 0 001.109-9.098l-45.628 8.046L4.819 50.99z"/>
    </symbol>

    <!-- ::: gold-caost-titans ::: -->
    <symbol id="Gold Coast Titans" viewBox="0 0 100.022 99.972">
        <circle cx="49.961" cy="49.972" r="48.2" fill="#1B81B7"/>
        <path fill="#FEC142" d="M31.161 62.572h36.6v-.1L95.64 34.593a48.25 48.25 0 00-14.841-21.659L49.461 44.272 18.604 13.383c-6.695 5.743-11.797 13.284-14.55 21.882l27.207 27.207-.1.1z"/>
        <path d="M49.961 99.972c-25.8 0-47.7-19.9-49.8-46-2.2-27.5 18.4-51.6 45.9-53.8 13.3-1.1 26.2 3.1 36.4 11.8s16.3 20.8 17.4 34.1c2.2 27.5-18.4 51.6-45.9 53.8-1.4.1-2.7.1-4 .1zm.1-95.2c-1.2 0-2.4 0-3.7.1-24.8 2-43.4 23.8-41.5 48.6 2 24.8 23.8 43.4 48.6 41.5 24.8-2 43.4-23.8 41.5-48.6-1-12-6.5-23-15.7-30.8-8.2-7-18.5-10.8-29.2-10.8z"/>
    </symbol>

    <!-- ::: manly-seaeagles ::: -->
    <symbol id="Manly Warringah Sea Eagles" viewBox="0 0 100 100">
        <circle cx="50" cy="50" r="50" fill="#6F173D"/>
        <g fill="#FFF">
            <path d="M1.774 36.8h96.452a49.467 49.467 0 00-1.973-5.8H3.747a49.653 49.653 0 00-1.973 5.8zM88.822 18.5H11.178a50.043 50.043 0 00-4.07 5.8h85.784a50.288 50.288 0 00-4.07-5.8zM11.414 81.8h77.172a50.04 50.04 0 004.128-5.8H7.286a50.04 50.04 0 004.128 5.8zM3.865 69.3h92.269a49.487 49.487 0 002.006-5.8H1.859a49.735 49.735 0 002.006 5.8z"/>
        </g>
    </symbol>

    <!-- ::: melbourne-storm ::: -->
    <symbol id="Melbourne Storm" viewBox="0 0 100 100">
        <circle cx="49.8" cy="50.2" r="47.3" fill="#642D8D"/>
        <defs>
            <circle id="a" cx="49.8" cy="50.2" r="47.3"/>
        </defs>
        <clipPath id="b">
            <use overflow="visible" xlink:href="#a"/>
        </clipPath>
        <g clip-path="url(#b)">
            <path fill="#182952" stroke="#182952" stroke-miterlimit="10" stroke-width="3" d="M-265.316 4158.777h39.3l-165.2 252-1.5-.7s57-217 57.5-219h-46.8l168.6-274.7 1.5.6s-53 239.8-53.4 241.8" transform="matrix(.16739 0 0 -.16718 100.573 745.78)"/>
            <path fill="#F7B01A" d="M63.638 87.623S55.335 50.176 55.25 49.84h6.177l-24.757-37.53s8.654 33.184 8.755 33.535h-7.533l25.745 41.777z"/>
        </g>
        <g>
            <path fill="#182952" d="M50 100C22.4 100 0 77.6 0 50S22.4 0 50 0s50 22.4 50 50-22.4 50-50 50zm0-95.2C25.1 4.8 4.8 25.1 4.8 50S25.1 95.2 50 95.2 95.2 74.9 95.2 50 74.9 4.8 50 4.8z"/>
        </g>
    </symbol>

    <!-- ::: new-zealand-warriors ::: -->
    <symbol id="New Zealand Warriors" viewBox="0 0 100 100">
        <circle cx="50" cy="50" r="50" fill="#231F20"/>
        <g fill="#BDBCBC">
            <path d="M51.6 60.1c4.3-6.3 11.4-15.5 22.6-26.2 4.858-4.637 10.585-8.837 16.698-12.647C81.849 8.403 66.911 0 50 0 33.664 0 19.161 7.837 10.036 19.953 16.972 24.081 23.511 28.7 29 33.9c11.2 10.7 18.3 19.9 22.6 26.2zM47.8 71.9l1.2-.3c-2.1-3.8-9.3-16-25.8-31.7-4.986-4.754-11.084-9.068-17.587-12.909A49.649 49.649 0 001.51 37.783 189.253 189.253 0 019.1 41.3c20.4 10 38.7 30.6 38.7 30.6zM54.2 71.5l1.2.3s18.3-20.5 38.7-30.6a183.6 183.6 0 014.665-2.226 49.638 49.638 0 00-3.676-10.609C89.537 31.815 84.381 35.623 79.9 39.9 63.5 55.5 56.2 67.7 54.2 71.5z"/>
        </g>
    </symbol>

    <!-- ::: newcastle-knights ::: -->
    <symbol id="Newcastle Knights" viewBox="0 0 100 100">
        <circle cx="49.9" cy="49.1" r="48.7" fill="#04559F"/>
        <path fill="#EF3925" d="M50 0C22.4 0 0 22.4 0 50s22.4 50 50 50 50-22.4 50-50S77.6 0 50 0zM4.8 50c0-14.1 6.5-26.6 16.6-34.9V85C11.3 76.6 4.8 64 4.8 50zm36.8 44.4V5.6c2.7-.5 5.5-.8 8.4-.8s5.7.3 8.4.8v88.8c-2.7.5-5.5.8-8.4.8s-5.7-.3-8.4-.8zm37-9.5V15c10.1 8.3 16.6 20.9 16.6 34.9 0 14.1-6.5 26.7-16.6 35z"/>
    </symbol>

    <!-- ::: north-qld-cowboys ::: -->
    <symbol id="North Queensland Cowboys" viewBox="0 0 100 100">
        <circle cx="50" cy="50" r="50" fill="#FEDC00"/>
        <path fill="#19335D" d="M50 100c27.614 0 50-22.386 50-50a49.8 49.8 0 00-5.075-21.96L51 93.5 5.757 26.709A49.765 49.765 0 000 50c0 27.614 22.386 50 50 50z"/>
        <path fill="#1A2E5A" d="M70.1 42.7l17.225-25.956a50.31 50.31 0 00-8.523-7.603L51.5 50.6 23.133 7.841a50.157 50.157 0 00-8.946 7.284L51 72.4l19.1-29.7z"/>
        <path fill="#1A2E5A" d="M68.628 3.6A49.841 49.841 0 0050 0c-5.698 0-11.166.966-16.268 2.722L51.5 29.8 68.628 3.6z"/>
    </symbol>

    <!-- ::: parramatta-eels ::: -->
    <symbol id="Parramatta Eels" viewBox="0 0 100 100">
        <circle cx="50" cy="50" r="50" fill="#046FB5"/>
        <path fill="none" d="M50 0C22.419 0 .057 22.332.003 49.9h99.995C99.943 22.332 77.581 0 50 0zM.32 55.6C3.105 80.577 24.28 100 50 100s46.895-19.423 49.68-44.4H.32z"/>
        <path fill="#FFD328" d="M100 50c0-.034-.002-.066-.003-.1H.003L0 50c0 1.894.115 3.761.32 5.6h99.36c.205-1.839.32-3.706.32-5.6z"/>
        <path fill="none" d="M.473 43.2A50.336 50.336 0 000 50c0 27.614 22.386 50 50 50s50-22.386 50-50c0-2.308-.17-4.575-.473-6.8H.473zM50 0C26.702 0 7.126 15.935 1.575 37.5h96.849C92.874 15.935 73.298 0 50 0z"/>
        <path fill="#FFD328" d="M98.425 37.5H1.575a50.037 50.037 0 00-1.103 5.7h99.055a49.817 49.817 0 00-1.102-5.7z"/>
        <path fill="none" d="M100 50c0-27.614-22.386-50-50-50S0 22.386 0 50c0 4.245.533 8.365 1.529 12.3h96.942A50.067 50.067 0 00100 50zM3.353 68C10.58 86.717 28.734 100 50 100s39.42-13.283 46.647-32H3.353z"/>
        <path fill="#FFD328" d="M98.471 62.3H1.529A49.459 49.459 0 003.353 68h93.295a49.65 49.65 0 001.823-5.7zM50 100c18.669 0 34.936-10.239 43.524-25.4H6.476C15.064 89.761 31.331 100 50 100z"/>
    </symbol>

    <!-- ::: penrith-panthers ::: -->
    <symbol id="Penrith Panthers" viewBox="0 0 100 100">
        <circle cx="50" cy="50" r="50"/>
        <path fill="#FFF" d="M50 95c19.003 0 35.243-11.785 41.841-28.44H8.159C14.757 83.215 30.997 95 50 95z"/>
        <path fill="#010101" d="M50 5C26.483 5 7.19 23.043 5.184 46.04h89.633C92.81 23.043 73.517 5 50 5z"/>
        <path fill="#ED1C25" d="M5.101 52.88h89.797c.061-.953.102-1.912.102-2.88 0-1.335-.07-2.654-.184-3.96H5.184A45.485 45.485 0 005 50c0 .968.041 1.927.101 2.88z"/>
        <path fill="#FFD328" d="M6.064 59.72h87.871c.49-2.223.815-4.507.963-6.84H5.101c.148 2.333.474 4.617.963 6.84z"/>
        <path fill="#00934B" d="M6.064 59.72a44.653 44.653 0 002.095 6.84H91.84a44.653 44.653 0 002.095-6.84H6.064z"/>
    </symbol>

    <!-- ::: south-sydney-rabbitohs ::: -->
    <symbol id="South Sydney Rabbitohs" viewBox="0 0 100 100">
        <circle cx="49.9" cy="49.2" r="48" fill="#ED1C25"/>
        <path fill="#00934B" d="M50 0C22.4 0 0 22.4 0 50s22.4 50 50 50 50-22.4 50-50S77.6 0 50 0zM7.6 43.9c.6-4.4 1.9-8.5 3.8-12.4h77.2c1.8 3.8 3.1 8 3.8 12.4H7.6zm85 10.5c-.4 4.3-1.6 8.5-3.2 12.4H10.7c-1.7-3.9-2.8-8-3.2-12.4h85.1zM50 7.2c12.4 0 23.6 5.3 31.4 13.8H18.6c7.8-8.5 19-13.8 31.4-13.8zm0 85.6c-13.2 0-25-6-32.9-15.5h65.8C75 86.8 63.2 92.8 50 92.8z"/>
    </symbol>

    <!-- ::: st-george-illawarra-dragons ::: -->
    <symbol id="St George Illawarra Dragons" viewBox="0 0 100.033 100.048">
        <circle cx="50.161" cy="50.148" r="47.8" fill="#FFF"/>
        <path fill="#ED1C25" d="M99.861 46.048c-2.2-27.5-26.3-48-53.8-45.9-27.5 2.2-48.1 26.3-45.9 53.8 1.1 13.3 7.2 25.4 17.4 34.1 9.1 7.8 20.5 12 32.4 12 1.3 0 2.7-.1 4-.2 13.3-1.1 25.4-7.2 34.1-17.4 8.7-10.2 12.9-23.1 11.8-36.4zm-53.4-41.1c1.2-.1 2.4-.1 3.6-.1 10.6 0 20.5 3.7 28.3 10l-28.8 28.8-28.4-28.4c7-5.8 15.7-9.6 25.3-10.3zm38 74.4c-7.8 9.2-18.8 14.8-30.8 15.7-12 1-23.7-2.8-32.9-10.7-9.2-7.8-14.8-18.8-15.7-30.8-.5-5.7.2-11.2 1.7-16.4l24.6 24.6-.1.1 18.2 18.2.1-.1.1.1 18.2-18.2-.1-.1 25.3-25.3c1 3.2 1.7 6.5 1.9 9.9 1.1 12.1-2.7 23.8-10.5 33z"/>
    </symbol>

    <!-- ::: sydney-roosters ::: -->
    <symbol id="Sydney Roosters" viewBox="0 0 100 100">
        <circle cx="50" cy="50" r="50" fill="#FFF"/>
        <path fill="none" d="M93.456 25.282C84.851 10.186 68.62 0 50 0 31.905 0 16.056 9.614 7.278 24.011L51 88.6l42.456-63.318z"/>
        <path fill="#19335D" d="M50 100c27.614 0 50-22.386 50-50a49.75 49.75 0 00-6.544-24.718L51 88.6 7.278 24.011A49.766 49.766 0 000 50c0 27.614 22.386 50 50 50z"/>
        <g>
            <path fill="#E72F2F" d="M49.976 99.999l.067.105.069-.107c-.037 0-.074.003-.112.003l-.024-.001z"/>
            <path fill="none" d="M50.113 99.997C77.675 99.936 100 77.576 100 50a49.797 49.797 0 00-4.243-20.155l-18.714 28.26-26.93 41.892z"/>
            <path fill="#E72F2F" d="M50.794 69.354L14.593 14.699A50.098 50.098 0 004.537 29.193l45.439 70.806L50 100c.038 0 .075-.003.113-.003l26.931-41.893 18.714-28.26a50.047 50.047 0 00-9.55-14.306L50.794 69.354z"/>
            <path fill="#E72F2F" d="M73.263 5.743A49.765 49.765 0 0050 0a49.79 49.79 0 00-22.02 5.106l22.85 34.873L73.263 5.743z"/>
        </g>
    </symbol>

    <!-- ::: wests-tigers ::: -->
    <symbol id="Wests Tigers" viewBox="0 0 100.033 100.061">
        <circle cx="49.761" cy="50.161" r="48.4" fill="#F68B21"/>
        <path fill="none" d="M94.219 30.309C86.588 13.533 69.693 1.861 50.061 1.861c-19.612 0-36.493 11.647-44.135 28.396l44.23 19.973 44.063-19.921z"/>
        <path d="M50.695 57.045l7.266-3.29 38.525-17.444a48.207 48.207 0 00-2.267-6.002L50.156 50.23 5.926 30.257a48.255 48.255 0 00-2.14 5.548l39.108 17.708 7.801 3.532zM54.747 78.374l-4.194 1.899-.073-.161-5.42-2.454L2.211 58.255c3.679 22.466 22.788 39.73 46.091 40.562.585.021 1.169.044 1.759.044.406 0 .807-.021 1.21-.031 23.334-.573 42.57-17.616 46.529-39.951L54.747 78.374z"/>
        <path fill="#FFF" d="M96.486 36.311L57.961 53.755l-7.266 3.29-7.8-3.532L3.787 35.805a48.474 48.474 0 00-2.226 14.556c0 2.689.229 5.324.649 7.893l42.85 19.402 5.42 2.454.073.161 4.194-1.899L97.8 58.879c.491-2.767.761-5.61.761-8.518 0-4.887-.73-9.602-2.075-14.05z"/>
        <g>
            <path d="M49.961 100.061c-11.9 0-23.2-4.2-32.4-12-10.2-8.7-16.3-20.8-17.4-34.1-2.2-27.5 18.4-51.6 45.9-53.8s51.6 18.4 53.8 45.9c1.1 13.3-3.1 26.2-11.8 36.4s-20.8 16.3-34.1 17.4c-1.3.1-2.6.2-4 .2zm.1-95.2c-1.2 0-2.4 0-3.6.1-24.8 2-43.4 23.8-41.5 48.6 1 12 6.5 23 15.7 30.8s20.9 11.6 32.9 10.7c12-1 23-6.5 30.8-15.7s11.6-20.9 10.7-32.9c-1.8-23.6-21.7-41.6-45-41.6z"/>
        </g>
    </symbol>
</svg>