<svg xmlns="http://www.w3.org/2000/svg" xmlns:xlink="http://www.w3.org/1999/xlink" baseProfile="tiny">
    <!-- ::: brisbane-broncos ::: -->
    <symbol id="Brisbane Broncos" viewBox="0 0 100 100">
        <circle cx="50" cy="50" r="49.2" fill="#761037"/>
        <path fill="none" d="M3.63 51.9c.039 1.553.152 3.088.339 4.6h93.262c.186-1.512.3-3.047.339-4.6H3.63zM6.468 66.9h88.265a46.711 46.711 0 001.491-4.9H4.977a46.474 46.474 0 001.491 4.9zM50.6 3.7C26.093 3.7 5.977 22.459 3.804 46.4h93.592C95.223 22.459 75.107 3.7 50.6 3.7z"/>
        <path fill="#FFF" d="M4.977 62h91.247a47.015 47.015 0 001.008-5.5H3.969c.23 1.869.565 3.705 1.008 5.5zM97.6 50.7c0-1.45-.076-2.883-.204-4.3H3.804a47.753 47.753 0 00-.204 4.3c0 .403.02.8.03 1.2h93.94c.01-.4.03-.797.03-1.2z"/>
        <path fill="#F9BF1A" d="M36.367 95.5h28.467c13.846-4.396 24.915-15.027 29.899-28.6H6.468c4.984 13.573 16.052 24.205 29.899 28.6z"/>
        <g>
            <path fill="#761037" d="M50 100C22.4 100 0 77.6 0 50S22.4 0 50 0s50 22.4 50 50-22.4 50-50 50zm0-95.2C25.1 4.8 4.8 25.1 4.8 50S25.1 95.2 50 95.2 95.2 74.9 95.2 50 74.9 4.8 50 4.8z"/>
        </g>
    </symbol>

    <!-- ::: canberra-raiders ::: -->
    <symbol id="Canberra Raiders" viewBox="0 0 100 100">
        <circle cx="50" cy="50" r="48.6" fill="#C3D942"/>
        <path fill="none" d="M50 1.4C27.954 1.4 9.348 16.083 3.4 36.2h93.2C90.652 16.083 72.046 1.4 50 1.4zM50 98.6c15.836 0 29.897-7.577 38.771-19.3H11.229C20.103 91.023 34.165 98.6 50 98.6z"/>
        <path fill="#046FB5" d="M1.4 50c0 2.621.214 5.191.613 7.7h95.973c.399-2.509.613-5.079.613-7.7 0-1.008-.041-2.007-.101-3H1.501c-.06.993-.101 1.992-.101 3z"/>
        <path fill="#F9BF1A" d="M5.055 68.5h89.891a48.239 48.239 0 003.023-10.7H2.031a48.187 48.187 0 003.024 10.7zM2.031 57.8h95.938l.018-.1H2.013l.018.1z"/>
        <path fill="#FFF" d="M98.499 47A48.418 48.418 0 0096.6 36.2H3.4A48.475 48.475 0 001.501 47h96.998zM5.055 68.5a48.53 48.53 0 006.175 10.8h77.541a48.53 48.53 0 006.175-10.8H5.055z"/>
        <g>
            <path fill="#05AC5B" d="M50 100C22.4 100 0 77.6 0 50S22.4 0 50 0s50 22.4 50 50-22.4 50-50 50zm0-95.1C25.1 4.9 4.9 25.1 4.9 50S25.1 95.1 50 95.1 95.1 74.8 95.1 50 74.9 4.9 50 4.9z"/>
        </g>
    </symbol>

    <!-- ::: canterbury-bulldog ::: -->
    <symbol id="Canterbury Bulldogs" viewBox="0 0 100 100">
        <circle cx="50" cy="50" r="50" fill="#03417A"/>
        <path fill="#FFF" d="M5 50c0 21.522 15.113 39.505 35.302 43.941L6.013 40.501A45.183 45.183 0 005 50zm55.092 43.85C80.083 89.267 95 71.381 95 50c0-2.851-.277-5.637-.784-8.34L74.34 71.716 60.092 93.85zm24.193-72.981a45.21 45.21 0 00-10.897-9.319L50.747 46.066 27.695 10.923a45.206 45.206 0 00-11.168 9.008l34.3 51.786 33.458-50.848z"/>
        <path fill="#0456A3" d="M50.827 71.716l-34.3-51.785a44.863 44.863 0 00-10.514 20.57L40.302 93.94A45.108 45.108 0 0050 95c3.471 0 6.846-.406 10.092-1.15l14.247-22.134 19.876-30.057a44.826 44.826 0 00-9.931-20.791L50.827 71.716zm22.56-60.167A44.788 44.788 0 0050 5a44.777 44.777 0 00-22.305 5.923l23.052 35.143 22.64-34.517z"/>
    </symbol>

    <!-- ::: cronulla-sharks ::: -->
    <symbol id="Cronulla Sutherland Sharks" viewBox="0 0 100.001 100.001">
        <circle cx="50.1" cy="50.1" r="48.4" fill="#0BA9D7"/>
        <path fill="none" d="M49.915 1.701C27.98 1.785 9.52 16.45 3.654 36.478l92.785-.354C90.42 16.141 71.849 1.617 49.915 1.701zM4.172 65.377c6.419 19.309 24.656 33.206 46.112 33.124 21.456-.082 39.586-14.118 45.858-33.476l-91.97.352z"/>
        <path fill="#FFF" d="M98.499 49.916a48.373 48.373 0 00-2.06-13.792l-92.785.354a48.387 48.387 0 00-1.955 13.808 48.329 48.329 0 002.473 15.091l91.969-.351a48.337 48.337 0 002.358-15.11z"/>
        <g>
            <path d="M95.435 33.134l-90.805.347a48.412 48.412 0 00-1.003 3.104l92.845-.354a47.052 47.052 0 00-1.037-3.097zM92.922 27.544l-85.811.327a48.282 48.282 0 00-1.479 3.106l88.783-.339a48.13 48.13 0 00-1.493-3.094zM5.283 68.379l89.77-.343a48.33 48.33 0 001.123-3.104l-92.032.351a47.65 47.65 0 001.139 3.096zM8.116 74.168l84.154-.321a48.521 48.521 0 001.613-3.106l-87.414.333a47.377 47.377 0 001.647 3.094z"/>
        </g>
        <g>
            <path d="M50.2 100C22.6 100.1.1 77.8 0 50.2S22.2.1 49.8 0 99.9 22.2 100 49.8c.1 27.6-22.2 50.1-49.8 50.2zm-.4-95.2c-24.9.1-45.1 20.4-45 45.4.1 24.9 20.4 45.1 45.4 45 24.9-.1 45.1-20.4 45-45.4-.1-24.9-20.5-45.1-45.4-45z"/>
        </g>
    </symbol>

    <!-- ::: dolphins ::: -->
    <symbol id="Dolphins" viewBox="0 0 100.061 100.033">
        <circle cx="50.031" cy="50.017" r="50" fill="#FE5442"/>
        <path fill="#F9C495" d="M49.812 67.708l-.02.114L5.96 60.093c4.626 20.072 22.594 35.043 44.071 35.043 21.531 0 39.536-15.047 44.106-35.195L49.82 67.755l-.008-.047zM49.817 51.098l-.02.113L5.268 43.36a45.608 45.608 0 00-.477 6.537c0 .366.019.728.028 1.092l44.798 7.899 45.628-8.046c.006-.316.024-.628.024-.946 0-2.269-.172-4.498-.494-6.678l-44.95 7.926-.008-.046z"/>
        <path fill="#FFF" d="M49.852 42.32l-.124-.022-.105.019L7.36 34.865a44.947 44.947 0 00-2.092 8.495l44.529 7.852.02-.113.008.047 44.95-7.926a44.928 44.928 0 00-2.106-8.449L49.852 42.32z"/>
        <path fill="#FFF" d="M4.819 50.99a45.311 45.311 0 001.14 9.103l43.832 7.729.02-.114.008.047 44.316-7.814a45.27 45.27 0 001.109-9.098l-45.628 8.046L4.819 50.99z"/>
    </symbol>

    <!-- ::: gold-caost-titans ::: -->
    <symbol id="Gold Coast Titans" viewBox="0 0 100.022 99.972">
        <circle cx="49.961" cy="49.972" r="48.2" fill="#1B81B7"/>
        <path fill="#FEC142" d="M31.161 62.572h36.6v-.1L95.64 34.593a48.25 48.25 0 00-14.841-21.659L49.461 44.272 18.604 13.383c-6.695 5.743-11.797 13.284-14.55 21.882l27.207 27.207-.1.1z"/>
        <path d="M49.961 99.972c-25.8 0-47.7-19.9-49.8-46-2.2-27.5 18.4-51.6 45.9-53.8 13.3-1.1 26.2 3.1 36.4 11.8s16.3 20.8 17.4 34.1c2.2 27.5-18.4 51.6-45.9 53.8-1.4.1-2.7.1-4 .1zm.1-95.2c-1.2 0-2.4 0-3.7.1-24.8 2-43.4 23.8-41.5 48.6 2 24.8 23.8 43.4 48.6 41.5 24.8-2 43.4-23.8 41.5-48.6-1-12-6.5-23-15.7-30.8-8.2-7-18.5-10.8-29.2-10.8z"/>
    </symbol>

    <!-- ::: manly-seaeagles ::: -->
    <symbol id="Manly Warringah Sea Eagles" viewBox="0 0 100 100">
        <circle cx="50" cy="50" r="50" fill="#6F173D"/>
        <g fill="#FFF">
            <path d="M1.774 36.8h96.452a49.467 49.467 0 00-1.973-5.8H3.747a49.653 49.653 0 00-1.973 5.8zM88.822 18.5H11.178a50.043 50.043 0 00-4.07 5.8h85.784a50.288 50.288 0 00-4.07-5.8zM11.414 81.8h77.172a50.04 50.04 0 004.128-5.8H7.286a50.04 50.04 0 004.128 5.8zM3.865 69.3h92.269a49.487 49.487 0 002.006-5.8H1.859a49.735 49.735 0 002.006 5.8z"/>
        </g>
    </symbol>

    <!-- ::: melbourne-storm ::: -->
    <symbol id="Melbourne Storm" viewBox="0 0 100 100">
        <circle cx="49.8" cy="50.2" r="47.3" fill="#642D8D"/>
        <defs>
            <circle id="a" cx="49.8" cy="50.2" r="47.3"/>
        </defs>
        <clipPath id="b">
            <use overflow="visible" xlink:href="#a"/>
        </clipPath>
        <g clip-path="url(#b)">
            <path fill="#182952" stroke="#182952" stroke-miterlimit="10" stroke-width="3" d="M-265.316 4158.777h39.3l-165.2 252-1.5-.7s57-217 57.5-219h-46.8l168.6-274.7 1.5.6s-53 239.8-53.4 241.8" transform="matrix(.16739 0 0 -.16718 100.573 745.78)"/>
            <path fill="#F7B01A" d="M63.638 87.623S55.335 50.176 55.25 49.84h6.177l-24.757-37.53s8.654 33.184 8.755 33.535h-7.533l25.745 41.777z"/>
        </g>
        <g>
            <path fill="#182952" d="M50 100C22.4 100 0 77.6 0 50S22.4 0 50 0s50 22.4 50 50-22.4 50-50 50zm0-95.2C25.1 4.8 4.8 25.1 4.8 50S25.1 95.2 50 95.2 95.2 74.9 95.2 50 74.9 4.8 50 4.8z"/>
        </g>
    </symbol>

    <!-- ::: new-zealand-warriors ::: -->
    <symbol id="New Zealand Warriors" viewBox="0 0 100 100">
        <circle cx="50" cy="50" r="50" fill="#231F20"/>
        <g fill="#BDBCBC">
            <path d="M51.6 60.1c4.3-6.3 11.4-15.5 22.6-26.2 4.858-4.637 10.585-8.837 16.698-12.647C81.849 8.403 66.911 0 50 0 33.664 0 19.161 7.837 10.036 19.953 16.972 24.081 23.511 28.7 29 33.9c11.2 10.7 18.3 19.9 22.6 26.2zM47.8 71.9l1.2-.3c-2.1-3.8-9.3-16-25.8-31.7-4.986-4.754-11.084-9.068-17.587-12.909A49.649 49.649 0 001.51 37.783 189.253 189.253 0 019.1 41.3c20.4 10 38.7 30.6 38.7 30.6zM54.2 71.5l1.2.3s18.3-20.5 38.7-30.6a183.6 183.6 0 014.665-2.226 49.638 49.638 0 00-3.676-10.609C89.537 31.815 84.381 35.623 79.9 39.9 63.5 55.5 56.2 67.7 54.2 71.5z"/>
        </g>
    </symbol>

    <!-- ::: newcastle-knights ::: -->
    <symbol id="Newcastle Knights" viewBox="0 0 100 100">
        <circle cx="49.9" cy="49.1" r="48.7" fill="#04559F"/>
        <path fill="#EF3925" d="M50 0C22.4 0 0 22.4 0 50s22.4 50 50 50 50-22.4 50-50S77.6 0 50 0zM4.8 50c0-14.1 6.5-26.6 16.6-34.9V85C11.3 76.6 4.8 64 4.8 50zm36.8 44.4V5.6c2.7-.5 5.5-.8 8.4-.8s5.7.3 8.4.8v88.8c-2.7.5-5.5.8-8.4.8s-5.7-.3-8.4-.8zm37-9.5V15c10.1 8.3 16.6 20.9 16.6 34.9 0 14.1-6.5 26.7-16.6 35z"/>
    </symbol>

    <!-- ::: north-qld-cowboys ::: -->
    <symbol id="North Queensland Cowboys" viewBox="0 0 100 100">
        <circle cx="50" cy="50" r="50" fill="#FEDC00"/>
        <path fill="#19335D" d="M50 100c27.614 0 50-22.386 50-50a49.8 49.8 0 00-5.075-21.96L51 93.5 5.757 26.709A49.765 49.765 0 000 50c0 27.614 22.386 50 50 50z"/>
        <path fill="#1A2E5A" d="M70.1 42.7l17.225-25.956a50.31 50.31 0 00-8.523-7.603L51.5 50.6 23.133 7.841a50.157 50.157 0 00-8.946 7.284L51 72.4l19.1-29.7z"/>
        <path fill="#1A2E5A" d="M68.628 3.6A49.841 49.841 0 0050 0c-5.698 0-11.166.966-16.268 2.722L51.5 29.8 68.628 3.6z"/>
    </symbol>

    <!-- ::: parramatta-eels ::: -->
    <symbol id="Parramatta Eels" viewBox="0 0 100 100">
        <circle cx="50" cy="50" r="50" fill="#046FB5"/>
        <path fill="none" d="M50 0C22.419 0 .057 22.332.003 49.9h99.995C99.943 22.332 77.581 0 50 0zM.32 55.6C3.105 80.577 24.28 100 50 100s46.895-19.423 49.68-44.4H.32z"/>
        <path fill="#FFD328" d="M100 50c0-.034-.002-.066-.003-.1H.003L0 50c0 1.894.115 3.761.32 5.6h99.36c.205-1.839.32-3.706.32-5.6z"/>
        <path fill="none" d="M.473 43.2A50.336 50.336 0 000 50c0 27.614 22.386 50 50 50s50-22.386 50-50c0-2.308-.17-4.575-.473-6.8H.473zM50 0C26.702 0 7.126 15.935 1.575 37.5h96.849C92.874 15.935 73.298 0 50 0z"/>
        <path fill="#FFD328" d="M98.425 37.5H1.575a50.037 50.037 0 00-1.103 5.7h99.055a49.817 49.817 0 00-1.102-5.7z"/>
        <path fill="none" d="M100 50c0-27.614-22.386-50-50-50S0 22.386 0 50c0 4.245.533 8.365 1.529 12.3h96.942A50.067 50.067 0 00100 50zM3.353 68C10.58 86.717 28.734 100 50 100s39.42-13.283 46.647-32H3.353z"/>
        <path fill="#FFD328" d="M98.471 62.3H1.529A49.459 49.459 0 003.353 68h93.295a49.65 49.65 0 001.823-5.7zM50 100c18.669 0 34.936-10.239 43.524-25.4H6.476C15.064 89.761 31.331 100 50 100z"/>
    </symbol>

    <!-- ::: penrith-panthers ::: -->
    <symbol id="Penrith Panthers" viewBox="0 0 100 100">
        <circle cx="50" cy="50" r="50"/>
        <path fill="#FFF" d="M50 95c19.003 0 35.243-11.785 41.841-28.44H8.159C14.757 83.215 30.997 95 50 95z"/>
        <path fill="#010101" d="M50 5C26.483 5 7.19 23.043 5.184 46.04h89.633C92.81 23.043 73.517 5 50 5z"/>
        <path fill="#ED1C25" d="M5.101 52.88h89.797c.061-.953.102-1.912.102-2.88 0-1.335-.07-2.654-.184-3.96H5.184A45.485 45.485 0 005 50c0 .968.041 1.927.101 2.88z"/>
        <path fill="#FFD328" d="M6.064 59.72h87.871c.49-2.223.815-4.507.963-6.84H5.101c.148 2.333.474 4.617.963 6.84z"/>
        <path fill="#00934B" d="M6.064 59.72a44.653 44.653 0 002.095 6.84H91.84a44.653 44.653 0 002.095-6.84H6.064z"/>
    </symbol>

    <!-- ::: south-sydney-rabbitohs ::: -->
    <symbol id="South Sydney Rabbitohs" viewBox="0 0 100 100">
        <circle cx="49.9" cy="49.2" r="48" fill="#ED1C25"/>
        <path fill="#00934B" d="M50 0C22.4 0 0 22.4 0 50s22.4 50 50 50 50-22.4 50-50S77.6 0 50 0zM7.6 43.9c.6-4.4 1.9-8.5 3.8-12.4h77.2c1.8 3.8 3.1 8 3.8 12.4H7.6zm85 10.5c-.4 4.3-1.6 8.5-3.2 12.4H10.7c-1.7-3.9-2.8-8-3.2-12.4h85.1zM50 7.2c12.4 0 23.6 5.3 31.4 13.8H18.6c7.8-8.5 19-13.8 31.4-13.8zm0 85.6c-13.2 0-25-6-32.9-15.5h65.8C75 86.8 63.2 92.8 50 92.8z"/>
    </symbol>

    <!-- ::: st-george-illawarra-dragons ::: -->
    <symbol id="St George Illawarra Dragons" viewBox="0 0 100.033 100.048">
        <circle cx="50.161" cy="50.148" r="47.8" fill="#FFF"/>
        <path fill="#ED1C25" d="M99.861 46.048c-2.2-27.5-26.3-48-53.8-45.9-27.5 2.2-48.1 26.3-45.9 53.8 1.1 13.3 7.2 25.4 17.4 34.1 9.1 7.8 20.5 12 32.4 12 1.3 0 2.7-.1 4-.2 13.3-1.1 25.4-7.2 34.1-17.4 8.7-10.2 12.9-23.1 11.8-36.4zm-53.4-41.1c1.2-.1 2.4-.1 3.6-.1 10.6 0 20.5 3.7 28.3 10l-28.8 28.8-28.4-28.4c7-5.8 15.7-9.6 25.3-10.3zm38 74.4c-7.8 9.2-18.8 14.8-30.8 15.7-12 1-23.7-2.8-32.9-10.7-9.2-7.8-14.8-18.8-15.7-30.8-.5-5.7.2-11.2 1.7-16.4l24.6 24.6-.1.1 18.2 18.2.1-.1.1.1 18.2-18.2-.1-.1 25.3-25.3c1 3.2 1.7 6.5 1.9 9.9 1.1 12.1-2.7 23.8-10.5 33z"/>
    </symbol>

    <!-- ::: sydney-roosters ::: -->
    <symbol id="Sydney Roosters" viewBox="0 0 100 100">
        <circle cx="50" cy="50" r="50" fill="#FFF"/>
        <path fill="none" d="M93.456 25.282C84.851 10.186 68.62 0 50 0 31.905 0 16.056 9.614 7.278 24.011L51 88.6l42.456-63.318z"/>
        <path fill="#19335D" d="M50 100c27.614 0 50-22.386 50-50a49.75 49.75 0 00-6.544-24.718L51 88.6 7.278 24.011A49.766 49.766 0 000 50c0 27.614 22.386 50 50 50z"/>
        <g>
            <path fill="#E72F2F" d="M49.976 99.999l.067.105.069-.107c-.037 0-.074.003-.112.003l-.024-.001z"/>
            <path fill="none" d="M50.113 99.997C77.675 99.936 100 77.576 100 50a49.797 49.797 0 00-4.243-20.155l-18.714 28.26-26.93 41.892z"/>
            <path fill="#E72F2F" d="M50.794 69.354L14.593 14.699A50.098 50.098 0 004.537 29.193l45.439 70.806L50 100c.038 0 .075-.003.113-.003l26.931-41.893 18.714-28.26a50.047 50.047 0 00-9.55-14.306L50.794 69.354z"/>
            <path fill="#E72F2F" d="M73.263 5.743A49.765 49.765 0 0050 0a49.79 49.79 0 00-22.02 5.106l22.85 34.873L73.263 5.743z"/>
        </g>
    </symbol>

    <!-- ::: wests-tigers ::: -->
    <symbol id="Wests Tigers" viewBox="0 0 100.033 100.061">
        <circle cx="49.761" cy="50.161" r="48.4" fill="#F68B21"/>
        <path fill="none" d="M94.219 30.309C86.588 13.533 69.693 1.861 50.061 1.861c-19.612 0-36.493 11.647-44.135 28.396l44.23 19.973 44.063-19.921z"/>
        <path d="M50.695 57.045l7.266-3.29 38.525-17.444a48.207 48.207 0 00-2.267-6.002L50.156 50.23 5.926 30.257a48.255 48.255 0 00-2.14 5.548l39.108 17.708 7.801 3.532zM54.747 78.374l-4.194 1.899-.073-.161-5.42-2.454L2.211 58.255c3.679 22.466 22.788 39.73 46.091 40.562.585.021 1.169.044 1.759.044.406 0 .807-.021 1.21-.031 23.334-.573 42.57-17.616 46.529-39.951L54.747 78.374z"/>
        <path fill="#FFF" d="M96.486 36.311L57.961 53.755l-7.266 3.29-7.8-3.532L3.787 35.805a48.474 48.474 0 00-2.226 14.556c0 2.689.229 5.324.649 7.893l42.85 19.402 5.42 2.454.073.161 4.194-1.899L97.8 58.879c.491-2.767.761-5.61.761-8.518 0-4.887-.73-9.602-2.075-14.05z"/>
        <g>
            <path d="M49.961 100.061c-11.9 0-23.2-4.2-32.4-12-10.2-8.7-16.3-20.8-17.4-34.1-2.2-27.5 18.4-51.6 45.9-53.8s51.6 18.4 53.8 45.9c1.1 13.3-3.1 26.2-11.8 36.4s-20.8 16.3-34.1 17.4c-1.3.1-2.6.2-4 .2zm.1-95.2c-1.2 0-2.4 0-3.6.1-24.8 2-43.4 23.8-41.5 48.6 1 12 6.5 23 15.7 30.8s20.9 11.6 32.9 10.7c12-1 23-6.5 30.8-15.7s11.6-20.9 10.7-32.9c-1.8-23.6-21.7-41.6-45-41.6z"/>
        </g>
    </symbol>
  
    <!-- ::: adelaide-crows ::: -->
    <symbol id="Adelaide Crows" viewBox="0 0 100 100">
        <path fill="#0D4D8C" d="M2.935 33.1h94.129a49.981 49.981 0 00-10.226-16.9H13.162A49.977 49.977 0 002.935 33.1z"/>
        <path fill="#E11D39" d="M0 50c0 .067.005.133.005.2h99.99c0-.067.005-.133.005-.2a49.9 49.9 0 00-2.868-16.7H2.868A49.9 49.9 0 000 50z"/>
        <path fill="#FED208" d="M50 0C35.47 0 22.392 6.203 13.257 16.1h73.486C77.608 6.203 64.53 0 50 0z"/>
        <path fill="#0D4D8C" d="M13.638 84.3h72.723a50.003 50.003 0 0010.522-16.9H3.116a50.003 50.003 0 0010.522 16.9z"/>
        <path fill="#E11D39" d="M50 100c14.282 0 27.155-5.998 36.266-15.6H13.734C22.845 94.002 35.718 100 50 100z"/>
        <path fill="#FED208" d="M3.037 67.2h93.925a49.894 49.894 0 003.03-16.9H.008a49.893 49.893 0 003.029 16.9z"/>
        <path fill="#002B60" d="M50 100C22.4 100 0 77.6 0 50S22.4 0 50 0s50 22.4 50 50-22.4 50-50 50zm0-95.2C25.1 4.8 4.8 25.1 4.8 50S25.1 95.2 50 95.2 95.2 74.9 95.2 50 74.9 4.8 50 4.8z"/>
    </symbol>

    <!-- ::: brisbane-lions ::: -->
    <symbol id="Brisbane Lions" viewBox="0 0 100 100">
        <path fill="#A31C49" d="M0 50c0 27.614 22.386 50 50 50s50-22.386 50-50c0-4.429-.582-8.72-1.663-12.809H1.663A50.044 50.044 0 000 50z"/>
        <path fill="#0D4D8C" d="M50 0C28.117 0 9.531 14.063 2.753 33.64h94.495C90.469 14.063 71.883 0 50 0zM98.337 37.191a49.94 49.94 0 00-1.089-3.551H2.753a49.427 49.427 0 00-1.089 3.551h96.673z"/>
        <g>
            <path fill="#FDBE58" d="M50 100C22.4 100 0 77.6 0 50S22.4 0 50 0s50 22.4 50 50-22.4 50-50 50zm0-95.2C25.1 4.8 4.8 25.1 4.8 50S25.1 95.2 50 95.2 95.2 74.9 95.2 50 74.9 4.8 50 4.8z"/>
        </g>
        <g fill="#FDBE58">
            <path d="M76.335 66.904c-.426-.119-.682-.208-.946-.261-.442-.087-.67.137-.503.554.116.289.343.565.588.764.268.217.642.3.914.513.166.129.3.387.318.598.039.456-.049.924.001 1.378.023.208.213.442.393.578.374.285.454.586.081.904-.473.403-.642.791-.284 1.365.091.145-.018.422-.054.636-.034.2-.064.41-.149.59-.084.179-.233.466-.357.467-.881.01-1.764-.04-2.758-.075l.482-.983-.169-.17c-.258.163-.575.276-.765.498-.584.684-1.333.647-2.098.557-.397-.047-.463-.287-.185-.557.658-.64 1.302-1.251 2.338-1.291.991-.038 1.238-.46 1.098-1.431a10.81 10.81 0 01-.107-1.283c-.023-.961-.218-1.184-1.151-1.491a62.578 62.578 0 01-3.078-1.127c-1.204-.468-2.053-1.405-2.941-2.286-.403-.399-.775-.838-1.22-1.182-.327-.253-.739-.506-1.133-.543-1.686-.157-2.534-1.521-2.867-2.922-.22-.927-.034-1.784.569-2.539.269-.337.12-.49-.249-.53-.737-.079-1.067.256-1.036 1.018.008.206.031.512-.086.605-.757.604-.28 1.277-.161 1.932.06.33.111.662.176.99.038.187.062.39.154.551.222.39.157.599-.302.706-2.206.513-4.26 1.414-6.241 2.494-.444.242-.875.517-1.34.705-.16.065-.457-.029-.608-.152-.418-.34-.745-.273-1.04.131-.276.377-.602.56-1.099.498-.218-.027-.479.136-.693.26-.626.362-.865.269-.83-.459.049-1.012.205-2.018.307-3.028.04-.391.057-.784.084-1.176l-.214-.047c-.087.192-.229.378-.252.578a120.495 120.495 0 00-.419 4.019c-.026.308-.013.511-.397.571-.135.021-.3.284-.328.457-.055.338-.186.451-.534.453-.494.004-.632.232-.387.686.263.487.225.882-.044 1.36-.274.489-.427 1.047-.612 1.582-.159.461-.298.854-.7 1.25-.354.349-.756.662-1.11 1.019a.934.934 0 00-.233.457c-.093.478-.16.961-.222 1.444-.15 1.171-.56 1.508-1.713 1.317-.472-.078-.86-.084-1.226.302-.131.138-.5.193-.672.107-.154-.077-.191-.396-.272-.612-.056-.15-.1-.305-.149-.458-.174.056-.391.066-.513.179-.211.197-.345.473-.547.683-.089.092-.264.101-.399.147-.021-.136-.034-.274-.064-.408-.04-.184-.093-.366-.14-.549-.174.093-.361.17-.521.284-.231.165-.442.358-.661.54.036-.321-.015-.687.125-.954.33-.629.911-.949 1.625-.991.819-.049 1.62-.17 2.146-.884.298-.405.584-.846.749-1.315.525-1.49 1.024-2.975 1.009-4.609-.007-.7.376-1.42.664-2.096.092-.215.427-.377.685-.459.386-.122.629-.324.635-.729.009-.604-.04-1.21-.014-1.813.036-.87.081-1.748.714-2.463.383.018.772.053 1.162.051.474-.002.73-.224.821-.727.096-.533.309-1.044.471-1.565.114-.368.192-.754.354-1.099.153-.326.353-.655.608-.904.604-.589.692-1.237.358-1.976-.136-.303-.328-.589-.412-.905-.077-.291-.16-.804-.036-.878.269-.161.73-.238 1.003-.113 1.136.523 2.319.806 3.552.945 1.567.176 3.082-.061 4.563-.554 1.828-.608 3.683-1.033 5.627-1.012a12.44 12.44 0 015.111 1.137c.923.423 1.827.434 2.7-.054.593-.332 1.163-.72 1.689-1.15 1.183-.968 1.064-2.859-.015-3.825-1.34-1.2-2.863-1.269-4.396-.822-1.926.561-3.777 1.376-5.677 2.034-1.046.362-2.11.721-3.195.916-2 .361-3.738-.29-5.229-1.643-.496-.451-.993-.9-1.507-1.366.529.044.413-.377.4-.709-.036-.912.359-1.615 1.07-2.272.425 1.471 1.608 2.105 2.811 2.737a3.512 3.512 0 011.525 1.575c.351.698.784.925 1.534.722.883-.239 1.749-.554 2.602-.888 1.364-.535 2.694-1.162 4.07-1.662 1.925-.7 3.879-.71 5.774.118 2.923 1.277 3.433 5.061.976 7.094-.316.261-.69.456-.986.736-.551.52-1.121 1.036-1.577 1.634-.428.561-.308.958.221 1.428.154.137.3.283.468.442l-1.023.466c.216.195.325.322.46.409.265.172.311.339.131.627-.27.43-.157.625.349.697.225.032.453.046.686.069-.19.796-.029 1.027.749 1.223.388.098.762.252 1.196.4-.134.157-.154.191-.183.213-.275.209-.552.416-.829.624.298.209.596.594.896.596 1.067.008 1.639.47 1.782 1.518.033.242.152.469.284.859z"/>
            <path d="M33.66 46.265c.32-.282.591-.672 1.192-.392.354.165.584-.157.758-.473.136-.246.34-.455.514-.68.159.156.332.3.475.47.275.329.578.354.927.133.145-.092.302-.252.445-.244.865.054 1.728.146 2.592.229.189.018.378.043.565.076.381.067.761.138 1.14.216.073.015.135.08.208.1.672.188.672.187.842.882.158-.027.319-.069.483-.081.537-.04.912.242 1.26.616.208.223.472.396.723.574.421.299.86.573 1.267.888.052.041-.061.268-.06.409.002.266-.073.645.069.777.554.513 1.18.948 1.817 1.441-.31.588.232 1.027.672 1.601-.246.039-.403.088-.559.084-.607-.015-1.017.263-1.207.826-.189.557.006 1.005.401 1.433.238.258.409.615.507.957.11.387.012.73-.372 1.016-.248.185-.375.55-.517.853-.114.244-.166.516-.247.775-.189.603-.438 1.196-.551 1.813-.128.7-.392.907-1.121.686-.987-.299-1.036-.309-1.284.681-.232.924-.351 1.876-.523 2.816-.046.249-.059.518-.17.737-.076.15-.292.321-.448.324-.794.018-1.591.007-2.384-.04-.692-.041-.967.423-1.203.924-.454.964-1.494 1.369-2.416.866-.179-.098-.321-.397-.346-.618-.086-.746-.299-1.317-.985-1.809-.328-.236-.253-1.056-.324-1.617-.023-.18.072-.375.114-.563-.209.084-.417.169-.626.251-.035.014-.075.012-.195.029-.049-.228-.078-.47-.155-.696-.081-.238-.169-.491-.323-.681-.233-.287-.134-2.287.183-2.474.301-.178.634-.304.952-.455.941-.446 1.531-1.087 1.434-2.234-.04-.47.104-.964.212-1.436.133-.581.081-.669-.498-.744-.174-.023-.387-.11-.481-.24-.053-.073.078-.311.166-.448.376-.584.734-1.185 1.167-1.724.227-.282.575-.499.91-.656.613-.288 1.239-.605 1.894-.724.425-.077.95.102 1.346.32.133.073.082.648-.02.947-.363 1.069-.214 1.81.78 2.391 1.074.628 1.002 1.907.379 2.785-.21.297-.297.685-.417 1.04-.067.2-.058.426-.13.623-.254.687-.501 1.378-.806 2.042-.177.385-.68.608-.592 1.132.035.21.067.555.18.591.246.079.575.071.809-.036.25-.114.43-.382.628-.572-.448-1.012-.151-1.884.54-2.786.408-.532.474-1.328.69-2.007.087-.273.09-.611.258-.813.495-.593.388-1.224.129-1.816-.125-.286-.474-.559-.781-.663-.492-.167-.944-.329-1.051-.886-.116-.602-.133-1.201.322-1.715.138-.156.202-.376.3-.567-.206-.081-.407-.218-.617-.234-.916-.068-1.455-.522-1.584-1.386-.133-.889-.82-1.145-1.568-.658-.614.4-1.232.912-2.069.652-.165-.051-.395-.075-.474-.193-.344-.512-.834-.492-1.356-.477-.688.021-1.46-.723-1.535-1.398-.025-.23-.146-.453-.255-.77z"/>
            <path d="M33.327 60.377c-.387-.354-.779-.703-1.159-1.065-.097-.092-.152-.226-.231-.338-.49-.702-.395-1.108.434-1.328.934-.248 1.436-1.331 1.101-2.259-.145-.402-.417-.518-.829-.442-.897.167-1.796.341-2.702.441-.22.024-.613-.173-.682-.359-.248-.669-.405-1.373-.569-2.071-.097-.411-.016-.695.463-.908.557-.248 1.067-.641 1.527-1.05.391-.348.748-.575 1.295-.459.299.063.63.05.932-.006.132-.024.23-.24.343-.369-.126-.095-.25-.266-.38-.271-.288-.011-.579.081-.87.091-.112.004-.257-.08-.33-.169-.034-.041.038-.238.113-.288.481-.318.956-.656 1.475-.899.208-.098.605-.072.77.069.438.373.92.341 1.429.373.304.019.648.143.888.331.741.581 1.179.606 2.011.1.185-.112.482-.064.725-.051.234.013.465.076.697.116l.094-.63c.009-.056.021-.111.04-.207.381-.076.552.129.561.46.014.504-.174.925-.67 1.134-.306.128-.625.224-.939.331-1.679.574-2.621 1.868-3.255 3.42-.283.692-.163.796.569.945.129.026.306.203.322.327.066.54.13 1.089.102 1.629-.04.761-.519 1.235-1.197 1.525-.053.023-.113.029-.17.045-.898.254-1.939.357-1.706 1.807l-.202.025zM64.178 64.173c-.098.388-.191.703-.256 1.023-.113.553-.074 1.07.268 1.567.162.235.184.568.259.859.029.112-.006.256.052.342.477.701.183 1.423.084 2.143-.038.281-.046.565-.071.889l-1.28-.918c-.112.407-.334.755-.255 1.01.243.788-.212 1.107-.792 1.311-.519.182-.807.438-.623 1.105-.468-.297-.764-.214-.888.246-.201.743-.739 1.012-1.443 1.031-.576.016-1.152.003-1.782.003l.084-1.018-1.054.681c-.024-.066-.039-.115-.059-.161l-.227-.539c-.175.107-.405.176-.513.33-.273.386-.557.646-1.098.414.028-.082.033-.165.077-.215 1.117-1.262 2.138-2.659 4.149-2.462.405.04.894-.135 1.246-.362.551-.355.748-.932.568-1.596-.26-.961-.565-1.913-.764-2.886-.139-.677-.175-1.384-.167-2.077.003-.234.234-.599.445-.676 1.32-.483 2.661-.427 4.04-.044zM29.737 69.083c-.664.336-.624.791-.511 1.29.188.83.077.923-.788.8-.258-.036-.531.013-.794.044-.429.051-.557-.099-.574-.553-.032-.862.695-1.204 1.082-1.773.404-.594.959-.765 1.707-.761 1.469.007 2.848-.382 3.938-1.479a8.37 8.37 0 011.072-.908c.539-.385.981-.258 1.239.349.239.563.422 1.15.663 1.712.055.129.234.273.37.289 1.236.147 2.473.284 3.327-.949.393-.568.76-.109 1.091.1.39.246.111.507-.058.732-.652.866-1.425 1.397-2.612 1.36-.749-.023-1.595-.063-2.261.541-.144.13-.483.074-.729.057-.401-.028-.786-.065-1.033.354-.045.077-.143.159-.227.171-.561.079-1.124.181-1.688.196-.679.018-1.337-.065-1.953.396-.55.411-1.193.059-1.253-.629-.038-.416-.008-.838-.008-1.339zM22.704 75.924h12.67c-.149.628-.535 1.023-1.006 1.343-.973.663-2.08.971-3.225 1.15-2.404.376-4.749.22-6.965-.876-.664-.329-1.257-.766-1.474-1.617zM35.288 75.363H22.576c.353-.438.548-.879.882-1.055.924-.487 1.901-.873 2.87-1.269.126-.052.336.047.486.12 1.489.722 2.972.708 4.467.009.19-.089.467-.137.651-.067.853.323 1.717.639 2.515 1.072.395.214.657.673.979 1.022l-.138.168z"/>
            <path d="M30.517 72.847c-.975.452-1.955.423-2.938 0h2.938z"/>
        </g>
    </symbol>

    <!-- ::: carlton-fc ::: -->
    <symbol id="Carlton Blues" viewBox="0 0 100 100">
        <circle cx="50" cy="50" r="50" fill="#091E2E"/>
        <path fill="#B8BEBF" d="M50 100C22.4 100 0 77.6 0 50S22.4 0 50 0s50 22.4 50 50-22.4 50-50 50zm0-95.2C25.1 4.8 4.8 25.1 4.8 50S25.1 95.2 50 95.2 95.2 74.9 95.2 50 74.9 4.8 50 4.8z"/>
        <g fill="#FFF">
            <path d="M43.001 72.485c-1.193-.397-2.199-.647-3.133-1.058-4.417-1.943-7.887-4.997-10.413-9.105a25.758 25.758 0 01-3.287-8.222c-.737-3.495-.753-6.969.051-10.485 1.121-4.907 3.881-8.784 7.522-12.023 2.846-2.531 6.247-4.223 9.938-5.308 3.429-1.007 6.904-1.222 10.408-.701 3.044.452 5.909 1.485 8.598 3.025 1.106.633 2.306 1.135 3.515 1.544 1.727.585 2.808 1.694 3.275 3.439.63 2.353 1.293 4.698 1.885 7.061.136.542.125 1.155.033 1.711-.127.768-.73.979-1.401.569-.866-.529-1.272-1.408-1.635-2.286-1.687-4.072-4.625-6.836-8.691-8.468-3.837-1.541-7.756-1.7-11.757-.82-4.938 1.086-9.088 3.434-12.09 7.59-1.558 2.157-2.542 4.573-2.826 7.218-.19 1.779-.34 3.588-.233 5.368.249 4.147 1.925 7.735 4.708 10.802a19.615 19.615 0 005.129 4.061c.169.093.385.306.387.466.027 1.791.017 3.583.017 5.622z"/>
            <path d="M43.252 35.353c0 2.215.007 4.301-.01 6.387-.002.229-.098.482-.219.683-1.834 3.051-2.245 6.343-1.698 9.805.588 3.714 2.492 6.588 5.596 8.659 2.017 1.346 4.284 1.769 6.673 1.511 3.368-.364 6.339-1.733 9.066-3.683.835-.598 1.417-.604 2.08.042.579.564.582 1.32.017 2.106-1.525 2.12-3.567 3.567-5.989 4.46-4.735 1.746-9.382 1.396-13.853-.869-3.199-1.62-5.5-4.205-7.245-7.298-.94-1.665-1.73-3.401-2-5.314-.71-5.02.736-9.431 3.946-13.273.87-1.041 1.97-1.89 2.976-2.814.17-.158.402-.248.66-.402z"/>
            <path d="M49.517 60.774c-1.049-.271-1.862-.875-2.658-1.489-.42-.324-.79-.714-1.168-1.089-.945-.938-1.415-1.979-1.392-3.409.109-6.663.101-13.329.094-19.993-.127-1.979 3.489-2.364 4.988-2.426v.893c.006 3.954.002 7.909.022 11.863.008 1.541 1.088 2.322 2.498 1.76.357-.142.718-.596.826-.977.259-.916.619-1.339 1.505-1.416.869-.075 1.501.315 1.776 1.18a288.287 288.287 0 012.109 6.855c.197.679.252 1.421-.433 1.948-.674.518-1.763.637-2.428.125-.603-.465-1.186-1.012-1.614-1.636-.768-1.119-1.838-1.298-3.029-1.18-.852.084-1.178.551-1.163 1.4.044 2.399.071 4.797.102 7.196.001.107-.019.215-.035.395zM44.103 24.884c0-.529-.033-1.059.01-1.583.039-.487-.162-.778-.553-1.031-1.028-.666-1.406-2.363-.681-3.326.23-.305.723-.586 1.095-.585 5.15.018 10.299.076 15.449.152 1.282.019 2.269.569 2.916 1.747.852 1.55 1.779 3.059 2.683 4.581.274.462.63.917.189 1.445-.39.465-1.249.63-1.843.271-.769-.464-1.496-1.008-2.197-1.573-1.594-1.285-3.398-1.95-5.444-2.01-1.13-.033-2.257-.176-3.386-.186-.658-.006-1.326.114-1.973.253-.307.066-.746.252-.829.488-.256.729-.823.658-1.382.735-1.313.183-2.619.4-4.054.622zM44.233 65.559c.709.25 1.319.494 1.947.68.953.283 1.911.553 2.879.773.455.103.473.353.457.722-.108 2.528-.172 5.058-.311 7.583-.072 1.306.261 2.314 1.433 3.048.896.562 1.057 1.684.628 3.091-.273.895-.601 1.164-1.522 1.17-2.065.014-4.13.017-6.195.009-.983-.004-1.467-.434-1.602-1.413-.061-.438-.073-.883-.095-1.325-.033-.681.25-1.213.823-1.568.995-.617 1.396-1.468 1.389-2.663-.018-3.13.072-6.26.121-9.39.003-.21.028-.421.048-.717z"/>
            <path d="M50.616 68.766c1.656 0 3.252.07 4.841-.013 4.514-.236 8.189-2.243 11.154-5.57.92-1.033 1.673-2.224 2.432-3.389.588-.902 1.233-1.19 2.088-.758.841.424 1.161 1.385.732 2.272-1.245 2.572-2.88 4.87-4.941 6.85a19.184 19.184 0 01-7.819 4.591c-2.671.809-5.402.951-8.16.579-.189-.026-.496-.304-.493-.461.024-1.414.106-2.827.166-4.101zM50.357 37.974c0-1.057-.003-2.071.001-3.084.007-1.669.01-1.684 1.686-1.493 1.994.227 3.895.768 5.734 1.593.919.412 1.931.651 2.924.854 1.547.317 2.6 1.167 3.154 2.632.609 1.61 1.252 3.211 1.764 4.852.156.501.012 1.145-.142 1.681-.187.652-.637.784-1.182.396a4.641 4.641 0 01-.992-.967c-1.813-2.4-4.004-4.367-6.694-5.718-1.84-.925-3.839-.998-5.855-.795l-.398.049z"/>
        </g>
    </symbol>

    <!-- ::: collingwood-magpies ::: -->
    <symbol id="Collingwood Magpies" viewBox="0 0 100 100">
        <path fill="none" d="M43.227.469zM53.131.107zM55.558.315c.407.045.811.1 1.215.154a48.554 48.554 0 00-1.215-.154zM50 0zM45.455.215zM44.442 99.685c-.407-.045-.811-.1-1.215-.154.404.055.808.109 1.215.154zM47.701.058zM52.299 99.942zM56.773 99.531zM50 100zM54.545 99.785zM46.869 99.893zM55.54.313l.019.002a56.91 56.91 0 00-1.013-.1l.014.001c.327.03.654.061.98.097zM47.698.058h.002c-.278.013-.554.032-.831.049l.012-.001c.273-.016.544-.035.817-.048zM100 50C100 24.684 81.182 3.777 56.773.469l.066.009C81.205 3.818 100 24.721 100 50zM56.839 99.522l-.066.009C81.182 96.223 100 75.316 100 50c0 25.279-18.795 46.182-43.161 49.522zM53.118.107l.012.001c-.277-.017-.553-.037-.831-.049h.002c.274.012.545.031.817.048zM54.559 99.784l-.014.001c.339-.031.677-.063 1.013-.1l-.019.002a51.59 51.59 0 01-.98.097zM45.441.216l.014-.001c-.339.031-.677.063-1.013.1l.019-.002c.325-.036.652-.067.98-.097zM46.882 99.893l-.012-.001c.277.017.553.037.831.049h-.002c-.274-.012-.545-.031-.817-.048zM43.161.478l.066-.009C18.818 3.777 0 24.684 0 50 0 24.721 18.795 3.818 43.161.478zM44.46 99.687l-.019-.002c.337.037.675.069 1.013.1l-.014-.001c-.327-.03-.654-.061-.98-.097zM0 50c0 25.316 18.818 46.223 43.227 49.531l-.066-.009C18.795 96.182 0 75.279 0 50zM53.118 99.893c-.272.017-.543.036-.817.048h-.002c.278-.013.554-.032.831-.049l-.012.001z"/>
        <path fill="#FFF" d="M88.9 18.611v62.777a50.237 50.237 0 01-15.6 12.844V5.768a50.248 50.248 0 0115.6 12.843zM44.46 99.687zM54.559 99.784zM46.882 99.893c.272.017.543.036.817.048-.274-.012-.546-.031-.817-.048zM55.54.313zM47.698.058c-.273.012-.545.031-.817.048.272-.016.544-.035.817-.048zM53.118 99.893c-.272.017-.544.036-.817.048.274-.012.545-.031.817-.048zM45.441.216zM53.118.107c-.272-.017-.543-.036-.817-.048.274.012.545.031.817.048zM11.1 81.389V18.611A50.237 50.237 0 0126.7 5.767v88.464a50.23 50.23 0 01-15.6-12.842z"/>
        <path fill="#FFF" d="M26.7 5.768a50.237 50.237 0 00-15.6 12.844v62.777a50.237 50.237 0 0015.6 12.844V5.768zM73.3 94.232a50.237 50.237 0 0015.6-12.844V18.611A50.237 50.237 0 0073.3 5.767v88.465z"/>
        <path fill="none" d="M47.701 99.942a51.53 51.53 0 00-.003 0h.003zM46.882.107l-.012.001c-.473.029-.945.065-1.414.107l-.014.001c.477-.043.957-.08 1.44-.109zM44.46.313l-.019.002c-.407.045-.811.1-1.215.154l-.066.009c.433-.059.865-.117 1.3-.165zM53.118 99.893l.012-.001c.473-.029.945-.065 1.414-.107l.014-.001c-.477.043-.957.08-1.44.109zM50 100c.771 0 1.537-.024 2.299-.058h.002c-.763.034-1.529.058-2.301.058zM45.441 99.784l.014.001a50.822 50.822 0 00-.014-.001zM43.161 99.522l.066.009c.404.055.808.109 1.215.154l.019.002a50.142 50.142 0 01-1.3-.165zM56.839.478l-.066-.009a48.554 48.554 0 00-1.215-.154l-.019-.002c.436.048.868.106 1.3.165zM50 0c-.771 0-1.537.024-2.299.058h-.002A51.619 51.619 0 0150 0zM55.54 99.687l.019-.002c.407-.045.811-.1 1.215-.154l.066-.009c-.433.059-.865.117-1.3.165zM52.299.058a51.53 51.53 0 00.003 0h-.003zM54.559.216l-.014-.001c-.47-.042-.941-.078-1.414-.107l-.012-.001c.482.029.962.066 1.44.109z"/>
        <path fill="#FFF" d="M53.118 99.893a49.073 49.073 0 003.722-.372c.32-.044.642-.082.961-.132V.61c-.318-.05-.641-.088-.961-.132a50.142 50.142 0 00-1.3-.165 52.52 52.52 0 00-2.422-.207c-.272-.017-.544-.036-.817-.048C51.538.024 50.772 0 50 0s-1.538.024-2.302.058c-.273.012-.545.031-.817.048a49.073 49.073 0 00-3.722.372c-.32.044-.642.082-.961.132v98.78c.318.05.641.088.961.132.432.059.864.117 1.3.165a52.52 52.52 0 002.422.207c.272.017.544.036.817.048.764.034 1.53.058 2.302.058s1.538-.024 2.302-.058c.273-.013.544-.032.816-.049z"/>
        <path d="M50 100C22.4 100 0 77.6 0 50S22.4 0 50 0s50 22.4 50 50-22.4 50-50 50zm0-95.2C25.1 4.8 4.8 25.1 4.8 50S25.1 95.2 50 95.2 95.2 74.9 95.2 50 74.9 4.8 50 4.8z"/>
        <g fill="#010101">
            <path d="M88.9 18.611v62.777C95.837 72.805 100 61.888 100 50s-4.163-22.805-11.1-31.389zM26.7 5.768v88.464a49.598 49.598 0 0015.5 5.157V.61a49.626 49.626 0 00-15.5 5.158zM57.8.61v98.78a49.624 49.624 0 0015.5-5.157V5.768A49.626 49.626 0 0057.8.61zM0 50c0 11.888 4.163 22.805 11.1 31.389V18.611C4.163 27.195 0 38.112 0 50z"/>
        </g>
    </symbol>

    <!-- ::: essendon-bombers ::: -->
    <symbol id="Essendon Bombers" viewBox="0 0 100 100">
        <circle cx="50" cy="50" r="48.6" fill="#010101"/>
        <path fill="#CD2032" d="M7.06 73.938L74.502 6.494 93.38 25.37 25.935 92.814z"/>
        <path d="M50 100C22.4 100 0 77.6 0 50S22.4 0 50 0s50 22.4 50 50-22.4 50-50 50zm0-95.2C25.1 4.8 4.8 25.1 4.8 50S25.1 95.2 50 95.2 95.2 74.9 95.2 50 74.9 4.8 50 4.8z"/>
    </symbol>

    <!-- ::: fremantle-dockers ::: -->
    <symbol id="Fremantle Dockers" viewBox="0 0 100 100">
        <g fill="#2A1A54">
            <path d="M21.999 8.572a50.28 50.28 0 00-5.018 3.898L50 44.983 83.019 12.47a50.165 50.165 0 00-5.018-3.898L50 36.144 21.999 8.572z"/>
            <path d="M28.294 4.946L50 26.32 71.707 4.946A49.797 49.797 0 0050 0a49.796 49.796 0 00-21.706 4.946z"/>
            <path d="M50 54.807L12.063 17.451a50.08 50.08 0 00-3.828 5.069L50 63.645 91.765 22.52a50.193 50.193 0 00-3.828-5.069L50 54.807z"/>
            <path d="M4.691 28.853A49.79 49.79 0 000 50c0 27.614 22.386 50 50 50s50-22.386 50-50c0-7.56-1.687-14.723-4.691-21.147L50 73.469 4.691 28.853z"/>
        </g>
        <circle cx="50" cy="50" r="50" fill="none"/>
        <path fill="#FFF" d="M16.981 12.469a50.163 50.163 0 00-4.918 4.981L50 54.807l37.937-37.356a50.272 50.272 0 00-4.918-4.981L50 44.983 16.981 12.469z"/>
        <path fill="#FFF" d="M50 26.32L28.294 4.946a49.996 49.996 0 00-6.295 3.626L50 36.144 78.001 8.572a49.996 49.996 0 00-6.295-3.626L50 26.32z"/>
        <path fill="#FFF" d="M50 63.645L8.235 22.519a49.903 49.903 0 00-3.544 6.334L50 73.469l45.309-44.615a49.834 49.834 0 00-3.544-6.334L50 63.645z"/>
        <path fill="#A0ACB5" d="M48.927 99.989C21.333 99.396-.581 76.521.012 48.927S23.48-.581 51.073.012s49.508 23.468 48.915 51.062c-.592 27.593-23.467 49.507-51.061 48.915zM50.97 4.811C26.076 4.276 5.345 24.136 4.811 49.03S24.136 94.655 49.03 95.19s45.625-19.325 46.16-44.22S75.865 5.345 50.97 4.811z"/>
    </symbol>

    <!-- ::: geelong-cats ::: -->
    <symbol id="Geelong Cats" viewBox="0 0 100 100">
        <circle cx="50" cy="50" r="50" fill="#FFF"/>
        <circle cx="50" cy="50" r="50" fill="#FFF"/>
        <path fill="#192F5B" d="M50 100C22.4 100 0 77.6 0 50S22.4 0 50 0s50 22.4 50 50-22.4 50-50 50zm0-95.2C25.1 4.8 4.8 25.1 4.8 50S25.1 95.2 50 95.2 95.2 74.9 95.2 50 74.9 4.8 50 4.8z"/>
        <path fill="#192F5B" d="M86.758 16.116H13.242a49.987 49.987 0 00-10.013 16.2h93.544a50.009 50.009 0 00-10.015-16.2zM0 50c0 2.759.233 5.462.663 8.1h98.674c.43-2.638.663-5.341.663-8.1s-.233-5.462-.663-8.1H.663A50.295 50.295 0 000 50zM13.242 83.884h73.517a49.987 49.987 0 0010.013-16.2H3.228a49.99 49.99 0 0010.014 16.2z"/>
    </symbol>

    <!-- ::: gold-coast-suns ::: -->
    <symbol id="Gold Coast Suns" viewBox="0 0 100 100">
        <circle cx="50" cy="50" r="50" fill="#E02826"/>
        <path fill="#FDDD00" d="M50 100C22.4 100 0 77.6 0 50S22.4 0 50 0s50 22.4 50 50-22.4 50-50 50zm0-95.2C25.1 4.8 4.8 25.1 4.8 50S25.1 95.2 50 95.2 95.2 74.9 95.2 50 74.9 4.8 50 4.8z"/>
        <path fill="#E02826" d="M85.879 49.772c0-10.329-16.319-18.728-36.651-18.999-20.331.271-36.26 8.811-36.26 19.14S28.898 68.5 49.229 68.771c20.331-.271 36.65-8.67 36.65-18.999z"/>
        <path fill="#FDDD00" d="M50.035 70.103c-20.397-.301-36.969-9.143-36.969-19.712 0-10.581 16.592-19.425 36.988-19.713 20.04.284 36.951 9.311 36.951 19.713 0 10.568-16.572 19.41-36.942 19.712h-.028zm.03-35.774c-17.432.25-33.304 7.905-33.304 16.063 0 8.145 15.866 15.801 33.287 16.062 17.396-.262 33.262-7.917 33.262-16.062 0-8.158-15.845-15.813-33.245-16.063z"/>
        <path fill="#FFF" d="M50.065 31.461c19.608.278 36.148 8.947 36.148 18.931 0 10.143-16.222 18.635-36.162 18.93h-.031c-19.94-.294-36.162-8.786-36.162-18.93 0-10.157 16.243-18.649 36.207-18.931m-.03 35.775c18.149-.273 34.066-8.142 34.066-16.844 0-8.716-15.905-16.588-34.036-16.845-18.149.257-34.096 8.128-34.096 16.845 0 8.702 15.917 16.571 34.066 16.844m.03-37.339h-.023c-21.178.299-37.421 9.302-37.421 20.495 0 11.179 16.222 19.399 37.375 19.712h.055c21.176-.313 37.328-8.533 37.328-19.712 0-11.006-16.498-20.2-37.291-20.495h-.023zm-.03 35.774c-18.593-.286-32.483-8.3-32.483-15.28 0-6.996 13.914-15.8 32.535-16.063 18.542.264 32.43 9.067 32.43 16.063.001 6.98-13.889 14.994-32.482 15.28z"/>
        <path fill="#FFF" d="M24.071 48.784H16.847v1.043l.521 1.797.543 1.043h-.344 6.504v-3.883zM67.932 43.246c1.826 0 3.288.183 4.018.548.731.365 1.096.913 1.279 2.009-.183 0-1.829-.731-6.758-.731h-6.575c-2.357 0-3.116.188-4.03 1.466-.348.587-.902 2.216-.902 6.387v.365c0 .731.014 1.262.619 1.851.606.589 1.938.706 2.851.706H80.13l-.939 2.009H55.877c-3.444 0-4.018-2.374-3.836-4.383 0 0 .413-3.937.731-6.758.247-2.676 1.986-3.47 6.94-3.47l8.22.001m12.199 12.602h.005M67.932 42.203h-8.219c-3.989 0-7.602.338-7.979 4.417a1067.38 1067.38 0 00-.729 6.745c-.158 1.736.226 3.157 1.108 4.123.856.937 2.123 1.412 3.765 1.412l21.855-.003c.405 0 .773-.234.945-.601l3.618-3.342c.081-.148-1.583-.149-2.159-.149H58.434c-1.343 0-1.967-.258-2.124-.411-.281-.273-.304-.417-.304-1.103v-.365c0-4.176.578-5.53.738-5.823.596-.824.938-.988 3.151-.988h6.575c3.989 0 5.702.482 6.265.641.186.052.32.09.493.09a1.042 1.042 0 001.029-1.215c-.236-1.415-.786-2.243-1.841-2.77-.873-.437-2.382-.658-4.484-.658z"/>
        <path fill="#FDDD00" d="M71.95 43.794c-.731-.365-2.192-.548-4.018-.548h-8.219c-4.955 0-6.693.794-6.94 3.47-.317 2.82-.731 6.758-.731 6.758-.183 2.009.392 4.383 3.836 4.383h26.57l.939-2.009H58.435c-.913 0-2.245-.117-2.851-.706-.606-.589-.619-1.12-.619-1.851v-.365c0-4.171.554-5.801.902-6.387.913-1.279 1.673-1.466 4.03-1.466h6.575c4.929 0 6.575.731 6.758.731-.184-1.097-.55-1.645-1.28-2.01z"/>
        <g>
            <path fill="#FFF" d="M45.832 43.428c1.659.155 2.374 1.278 2.557 2.009-.202-.121-2.304-.485-4.19-.485-1.741 0-5.682-.083-8.495-.083l-.678.002c-2.819.016-4.513.375-4.719 2.758-.121 1.69-.365 5.479-.365 5.479-.091 2.478 1.91 2.557 4.114 2.557h7.94c1.812-.057 3.246-.529 3.47-2.374l.183-1.826H34.325l.183-1.826h13.516s-.548 5.114-.731 5.662c-.487 1.417-2.1 2.374-4.749 2.374h-9.863c-2.192 0-5.705-.469-5.624-3.288.065-1.646.51-6.21.51-6.21.106-1.308.338-2.112.927-3.004.589-.893 1.431-1.475 2.543-1.562 1.023-.076 13.211-.142 14.795-.183m0-1.043h-.027c-.609.016-2.82.036-5.381.058-5.156.046-8.852.081-9.463.127-1.38.108-2.532.809-3.336 2.027-.676 1.024-.973 1.971-1.096 3.495-.017.171-.447 4.596-.512 6.253-.03 1.042.315 1.957.997 2.66 1.375 1.415 3.841 1.712 5.669 1.712h9.863c2.973 0 5.063-1.122 5.735-3.078.193-.579.572-3.938.781-5.89a1.04 1.04 0 00-1.037-1.154H34.508c-.536 0-.984.406-1.038.939l-.183 1.826a1.04 1.04 0 001.037 1.147h10.172l-.068.68c-.086.708-.342 1.369-2.465 1.436l-7.456-.001h-.452c-1 0-2.371 0-2.826-.473-.181-.188-.263-.525-.246-1.003 0 0 .243-3.762.363-5.444.106-1.226.486-1.771 3.684-1.79l.672-.002c1.568 0 3.49.026 5.186.049 1.341.018 2.539.034 3.309.034 1.611 0 3.399.289 3.768.396a1.046 1.046 0 001.044-.116c.338-.251.492-.681.39-1.09-.291-1.166-1.376-2.598-3.471-2.794a1.509 1.509 0 00-.096-.004z"/>
            <path fill="#FDDD00" d="M45.832 43.428c-1.584.041-13.772.107-14.794.183-1.112.087-1.954.669-2.543 1.562-.589.893-.821 1.696-.927 3.004 0 0-.444 4.564-.51 6.21-.081 2.819 3.432 3.288 5.624 3.288h9.863c2.649 0 4.262-.958 4.749-2.374.183-.548.731-5.662.731-5.662H34.508l-.183 1.826h11.324l-.183 1.826c-.224 1.845-1.658 2.318-3.47 2.374h-7.94c-2.204 0-4.206-.079-4.114-2.557 0 0 .244-3.789.365-5.479.205-2.383 1.9-2.742 4.719-2.758l.678-.002c2.813 0 6.755.083 8.495.083 1.886 0 3.987.364 4.19.485-.183-.731-.898-1.854-2.557-2.009z"/>
        </g>
        <path fill="#FDDD00" d="M14.653 49.826h8.376v1.797h-8.376z"/>
    </symbol>

    <!-- ::: gws-giants ::: -->
    <symbol id="Greater Western Sydney Giants" viewBox="0 0 100 100">
        <path fill="#FFF" d="M24.398 92.948l2.942 5.454 6.759 1.801 1.634-2.28a49.709 49.709 0 01-11.335-4.975z"/>
        <path fill="#F47A20" d="M71.498 48.48h28.464C99.156 21.571 77.104 0 50 0 22.902 0 .854 21.561.039 48.461h71.473l-.014.019z"/>
        <path fill="#231F20" d="M59.225 65.235H31.227c-1.258 0-2.412.524-3.146 1.573l-6.082 8.494h11.849c1.258 0 2.517-.629 3.251-1.678l1.258-1.783 16.149-.105-18.772 26.187A49.994 49.994 0 0050 100c27.614 0 50-22.386 50-50 0-.51-.023-1.014-.038-1.52H71.498L59.225 65.235z"/>
        <path fill="#FFF" d="M24.398 92.948l-3.132-5.806s-1.333-11.705-1.185-12.298c.148-.593 6.667-11.853 7.408-12.149.741-.296 42.656-14.215 42.656-14.215h1.353l.014-.019H.039C.023 48.973 0 49.484 0 50c0 18.256 9.788 34.22 24.398 42.948z"/>
        <path fill="#FFF" d="M38.358 71.841L37.1 73.624c-.734 1.049-1.992 1.678-3.251 1.678h-11.85l6.082-8.494c.734-1.049 1.888-1.573 3.146-1.573h27.998L71.498 48.48h-1.353S28.229 62.398 27.489 62.695c-.741.296-7.26 11.557-7.408 12.149-.148.593 1.185 12.298 1.185 12.298l3.132 5.806a49.697 49.697 0 0011.336 4.975l18.772-26.187-16.148.105z"/>
        <path fill="#231F20" d="M50 100C22.4 100 0 77.6 0 50S22.4 0 50 0s50 22.4 50 50-22.4 50-50 50zm0-95.2C25.1 4.8 4.8 25.1 4.8 50S25.1 95.2 50 95.2 95.2 74.9 95.2 50 74.9 4.8 50 4.8z"/>
    </symbol>

    <!-- ::: hawthorn-hawks ::: -->
    <symbol id="Hawthorn Hawks" viewBox="0 0 100 100">
        <path fill="#4C230D" d="M50 0C22.4 0 0 22.4 0 50s22.4 50 50 50 50-22.4 50-50S77.6 0 50 0z"/>
        <path fill="none" d="M11.1 18.611v62.778a50.22 50.22 0 0015.6 12.843V5.768a50.234 50.234 0 00-15.6 12.843zM73.3 5.768v88.464a50.248 50.248 0 0015.6-12.843V18.611A50.234 50.234 0 0073.3 5.768zM50 0c-2.654 0-5.258.211-7.8.61v98.78a50.265 50.265 0 0015.6 0V.61A50.265 50.265 0 0050 0z"/>
        <path fill="#F9BF1A" d="M57.8.61v98.78a49.626 49.626 0 0015.5-5.158V5.768A49.626 49.626 0 0057.8.61zM88.9 18.611v62.778C95.837 72.805 100 61.888 100 50s-4.163-22.805-11.1-31.389zM26.7 5.768v88.464a49.626 49.626 0 0015.5 5.158V.61a49.626 49.626 0 00-15.5 5.158zM0 50c0 11.888 4.163 22.805 11.1 31.389V18.611C4.163 27.195 0 38.112 0 50z"/>
        <defs>
            <circle id="a" cx="50" cy="50" r="50"/>
        </defs>
        <path fill="#F9BF1A" d="M50 100C22.4 100 0 77.6 0 50S22.4 0 50 0s50 22.4 50 50-22.4 50-50 50zm0-95.2C25.1 4.8 4.8 25.1 4.8 50S25.1 95.2 50 95.2 95.2 74.9 95.2 50 74.9 4.8 50 4.8z"/>
    </symbol>

    <!-- ::: melbourne-fc ::: -->
    <symbol id="Melbourne Demons" viewBox="0 0 100.019 100.019">
        <circle cx="50.009" cy="50.009" r="49.998" fill="#111332"/>
        <path fill="none" d="M38.519 1.35a50.116 50.116 0 00-2.989.814H64.5a49.739 49.739 0 00-25.981-.814zM98.669 38.519a49.755 49.755 0 00-15.932-26.296L50.566 59.857 17.4 12.114C3.722 23.904-3.087 42.71 1.349 61.499c6.346 26.874 33.276 43.516 60.15 37.17 26.875-6.345 43.516-33.275 37.17-60.15z"/>
        <path fill="#CD2032" d="M82.737 12.223A50.229 50.229 0 0064.5 2.163H35.53a49.673 49.673 0 00-18.13 9.951l33.166 47.743 32.171-47.634z"/>
        <path fill="#CD2032" d="M50.009 100.009c-27.6 0-50-22.4-50-50s22.4-50 50-50 50 22.4 50 50-22.4 50-50 50zm0-95.2c-24.9 0-45.2 20.3-45.2 45.2s20.3 45.2 45.2 45.2 45.2-20.3 45.2-45.2-20.3-45.2-45.2-45.2z"/>
    </symbol>

    <!-- ::: north-melbourne-fc ::: -->
    <symbol id="North Melbourne Kangaroos" viewBox="0 0 100 100">
        <circle cx="50" cy="50" r="50" fill="#FFF"/>
        <path fill="none" d="M73.6 5.915v88.169a50.212 50.212 0 0015.7-13.193V19.108A50.223 50.223 0 0073.6 5.915zM11.3 18.345v63.31a50.201 50.201 0 0015.5 12.634V5.711a50.201 50.201 0 00-15.5 12.634zM50 0c-2.584 0-5.122.196-7.6.574v98.851a50.245 50.245 0 0015.6-.07V.645A50.348 50.348 0 0050 0z"/>
        <path fill="#253F8B" d="M0 50a49.79 49.79 0 0011.3 31.655v-63.31A49.79 49.79 0 000 50zM26.8 5.711V94.29a49.635 49.635 0 0015.6 5.136V.574a49.636 49.636 0 00-15.6 5.137zM89.3 19.108v61.783C95.995 72.386 100 61.664 100 50s-4.005-22.386-10.7-30.892zM58 .645v98.71a49.662 49.662 0 0015.6-5.27V5.915A49.636 49.636 0 0058 .645z"/>
        <path fill="#253F8B" d="M50 100C22.4 100 0 77.6 0 50S22.4 0 50 0s50 22.4 50 50-22.4 50-50 50zm0-95.2C25.1 4.8 4.8 25.1 4.8 50S25.1 95.2 50 95.2 95.2 74.9 95.2 50 74.9 4.8 50 4.8z"/>
    </symbol>

    <!-- ::: port-adelaide-power ::: -->
    <symbol id="Port Adelaide Power" viewBox="0 0 100 100">
        <circle cx="50" cy="51.19" r="48.2" transform="rotate(-.584 50.013 51.206)"/>
        <path fill="#FFF" d="M50 2.99c-24.455 0-35.338 12.695-39.983 20.317L50 75.723l37.933-51C83.662 17.19 74.854 2.99 50 2.99z"/>
        <path fill="#05A1B0" d="M50 2.99c-16.235 0-24.065 6.567-30.876 13.212L50 57.39l30.691-40.962C74.069 9.696 66.368 2.99 50 2.99z"/>
        <path d="M50 100C22.4 100 0 77.6 0 50S22.4 0 50 0s50 22.4 50 50-22.4 50-50 50zm0-95.2C25.1 4.8 4.8 25.1 4.8 50S25.1 95.2 50 95.2 95.2 74.9 95.2 50 74.9 4.8 50 4.8z"/>
    </symbol>

    <!-- ::: richmond-tigers ::: -->
    <symbol id="Richmond Tigers" viewBox="0 0 100 100">
        <circle cx="50" cy="50" r="48.6" fill="#010101"/>
        <path fill="#FED208" d="M7.06 73.938L74.502 6.494 93.38 25.37 25.935 92.814z"/>
        <path d="M50 100C22.4 100 0 77.6 0 50S22.4 0 50 0s50 22.4 50 50-22.4 50-50 50zm0-95.2C25.1 4.8 4.8 25.1 4.8 50S25.1 95.2 50 95.2 95.2 74.9 95.2 50 74.9 4.8 50 4.8z"/>
    </symbol>

    <!-- ::: st-kilda-fc ::: -->
    <symbol id="St Kilda Saints" viewBox="0 0 100 100">
        <path fill="#EC1F31" d="M0 50c0 21.711 13.84 40.182 33.177 47.091V2.909C13.84 9.818 0 28.289 0 50z"/>
        <path fill="#FFF" d="M33.181 2.908v94.184A49.894 49.894 0 0050 100a49.894 49.894 0 0016.588-2.83V2.83A49.894 49.894 0 0050 0a49.894 49.894 0 00-16.819 2.908zM33.177 2.909v94.182l.004.001V2.908z"/>
        <path fill="#010101" d="M66.588 2.83v94.34C86.047 90.327 100 71.798 100 50S86.047 9.673 66.588 2.83z"/>
        <g>
            <defs>
                <circle id="a" cx="50" cy="50" r="50"/>
            </defs>
        </g>
        <path fill="#010101" d="M50 100C22.4 100 0 77.6 0 50S22.4 0 50 0s50 22.4 50 50-22.4 50-50 50zm0-95.2C25.1 4.8 4.8 25.1 4.8 50S25.1 95.2 50 95.2 95.2 74.9 95.2 50 74.9 4.8 50 4.8z"/>
    </symbol>

    <!-- ::: sydney-swans ::: -->
    <symbol id="Sydney Swans" viewBox="0 0 100 100">
        <circle cx="50" cy="50" r="50" fill="#FFF"/>
        <defs>
            <circle id="a" cx="50" cy="50" r="50"/>
        </defs>
        <path fill="#EC1D25" d="M50 100C22.4 100 0 77.6 0 50S22.4 0 50 0s50 22.4 50 50-22.4 50-50 50zm0-95.2C25.1 4.8 4.8 25.1 4.8 50S25.1 95.2 50 95.2 95.2 74.9 95.2 50 74.9 4.8 50 4.8z"/>
        <g>
            <path fill="#EC1D25" d="M28.383 62.033c.9-3.4 0-7-.6-10.4 3.3.7 6.4 2.2 8.9 4.5-.1-3-.2-6.1-1.7-8.8 3.8.2 7.4 2 10.2 4.5.3-4.4-.9-8.9-3.7-12.3 6.2.7 12.5 3.1 16.7 7.9 1.4 1.5 2.4 3.3 3.4 5.1 1.5-1.4 3.1-2.5 5-3.2 2.2-.8 4.5-1 6.8-1-3.053 4.629-3.581 10.422-2.545 15.755h.006a59808.125 59808.125 0 0119.479-40.711C76.844 5.662 52.05 1.011 52.05 1.011S23.263 2.5 10.139 24.04c4.371 9.18 9.514 19.94 13.044 27.193 1.7 3.6 3.4 7.2 5.2 10.8z"/>
            <circle cx="50" cy="50" r="50" fill="none"/>
            <defs>
                <circle id="b" cx="50" cy="50" r="50"/>
            </defs>
        </g>
    </symbol>

    <!-- ::: west-coast-eagles ::: -->
    <symbol id="West Coast Eagles" viewBox="0 0 100 100">
        <circle cx="50" cy="50" r="50" fill="#253B80"/>
        <path fill="#ED9F2D" d="M85.7 77.8c6-7.7 9.5-17.3 9.5-27.8 0-21.7-15.3-39.9-35.7-44.2.5 9.4 2.2 22.6 7.5 37.5 5.6 15.3 12.9 26.8 18.7 34.5zM14.3 77.8c-6-7.7-9.5-17.3-9.5-27.8 0-21.7 15.3-39.9 35.7-44.2-.5 9.4-2.2 22.6-7.5 37.5-5.5 15.3-12.9 26.8-18.7 34.5z"/>
    </symbol>

    <!-- ::: western-bulldogs ::: -->
    <symbol id="Western Bulldogs" viewBox="0 0 100 100">
        <circle cx="50" cy="50" r="50" fill="#21549E"/>
        <path fill="none" d="M.791 41.185a50.21 50.21 0 00-.694 5.823h99.806a49.994 49.994 0 00-.694-5.823H.791zM50 0C34.707 0 21.026 6.874 11.854 17.691h76.291C78.974 6.874 65.293 0 50 0zM50 100c20.306 0 37.772-12.112 45.601-29.499H4.399C12.228 87.888 29.694 100 50 100z"/>
        <path fill="#FFF" d="M0 50a49.796 49.796 0 004.399 20.501h91.203A49.812 49.812 0 00100 50c0-1.006-.038-2.002-.097-2.993H.097A50.287 50.287 0 000 50z"/>
        <path fill="#BE202F" d="M88.146 17.691H11.854A49.782 49.782 0 00.791 41.185H99.21a49.793 49.793 0 00-11.064-23.494z"/>
        <g>
            <defs>
                <circle id="a" cx="50" cy="50" r="50"/>
            </defs>
        </g>
        <path fill="#21549E" d="M50 100C22.4 100 0 77.6 0 50S22.4 0 50 0s50 22.4 50 50-22.4 50-50 50zm0-95.2C25.1 4.8 4.8 25.1 4.8 50S25.1 95.2 50 95.2 95.2 74.9 95.2 50 74.9 4.8 50 4.8z"/>
    </symbol>
</svg>